<mxfile host="app.diagrams.net" agent="Mozilla/5.0 (Windows NT 10.0; Win64; x64; rv:132.0) Gecko/20100101 Firefox/132.0" version="24.9.0">
  <diagram id="C5RBs43oDa-KdzZeNtuy" name="Page-1">
    <mxGraphModel dx="1434" dy="782" grid="1" gridSize="10" guides="1" tooltips="1" connect="1" arrows="1" fold="1" page="1" pageScale="1" pageWidth="827" pageHeight="1169" math="0" shadow="0">
      <root>
        <mxCell id="WIyWlLk6GJQsqaUBKTNV-0" />
        <mxCell id="WIyWlLk6GJQsqaUBKTNV-1" parent="WIyWlLk6GJQsqaUBKTNV-0" />
        <mxCell id="k88lvfV29TgzRFzSoSJi-55" style="edgeStyle=orthogonalEdgeStyle;rounded=0;orthogonalLoop=1;jettySize=auto;html=1;entryX=0.5;entryY=0;entryDx=0;entryDy=0;exitX=0.5;exitY=1;exitDx=0;exitDy=0;" parent="WIyWlLk6GJQsqaUBKTNV-1" source="k88lvfV29TgzRFzSoSJi-111" edge="1">
          <mxGeometry relative="1" as="geometry">
            <mxPoint x="520" y="240" as="sourcePoint" />
            <mxPoint x="420" y="270" as="targetPoint" />
          </mxGeometry>
        </mxCell>
        <mxCell id="k88lvfV29TgzRFzSoSJi-89" value="P&lt;sub&gt;RT &lt;/sub&gt;= KT&lt;sub&gt;RT&lt;/sub&gt;, UT&lt;sub&gt;RT&lt;/sub&gt;, C&lt;sub&gt;R&lt;/sub&gt;, C&lt;sub&gt;NR&lt;/sub&gt;" style="edgeLabel;html=1;align=center;verticalAlign=middle;resizable=0;points=[];" parent="k88lvfV29TgzRFzSoSJi-55" vertex="1" connectable="0">
          <mxGeometry x="-0.48" relative="1" as="geometry">
            <mxPoint y="7" as="offset" />
          </mxGeometry>
        </mxCell>
        <mxCell id="k88lvfV29TgzRFzSoSJi-4" style="edgeStyle=orthogonalEdgeStyle;rounded=0;orthogonalLoop=1;jettySize=auto;html=1;exitX=1;exitY=0.5;exitDx=0;exitDy=0;entryX=0;entryY=0.5;entryDx=0;entryDy=0;" parent="WIyWlLk6GJQsqaUBKTNV-1" source="k88lvfV29TgzRFzSoSJi-1" target="k88lvfV29TgzRFzSoSJi-2" edge="1">
          <mxGeometry relative="1" as="geometry" />
        </mxCell>
        <mxCell id="k88lvfV29TgzRFzSoSJi-1" value="&lt;div&gt;&lt;b&gt;RAW dataset&lt;/b&gt;&lt;/div&gt;&lt;div&gt;&lt;br&gt;&lt;/div&gt;&lt;div&gt;P&lt;sub&gt;N&lt;/sub&gt;,C&lt;sub&gt;N&lt;/sub&gt;&lt;br&gt;&lt;/div&gt;" style="rounded=1;whiteSpace=wrap;html=1;" parent="WIyWlLk6GJQsqaUBKTNV-1" vertex="1">
          <mxGeometry x="100" y="110" width="90" height="90" as="geometry" />
        </mxCell>
        <mxCell id="k88lvfV29TgzRFzSoSJi-6" style="edgeStyle=orthogonalEdgeStyle;rounded=0;orthogonalLoop=1;jettySize=auto;html=1;exitX=1;exitY=0.5;exitDx=0;exitDy=0;entryX=0;entryY=0.5;entryDx=0;entryDy=0;" parent="WIyWlLk6GJQsqaUBKTNV-1" source="k88lvfV29TgzRFzSoSJi-2" target="k88lvfV29TgzRFzSoSJi-5" edge="1">
          <mxGeometry relative="1" as="geometry" />
        </mxCell>
        <mxCell id="k88lvfV29TgzRFzSoSJi-2" value="&lt;div&gt;&lt;b&gt;Rolling selection&lt;/b&gt;&lt;/div&gt;&lt;div&gt;&lt;br&gt;&lt;/div&gt;&lt;div&gt;P&lt;sub&gt;R&lt;/sub&gt;,C&lt;sub&gt;R&lt;/sub&gt;&lt;br&gt;&lt;/div&gt;,C&lt;sub&gt;NR&lt;/sub&gt;" style="rounded=1;whiteSpace=wrap;html=1;" parent="WIyWlLk6GJQsqaUBKTNV-1" vertex="1">
          <mxGeometry x="210" y="110" width="90" height="90" as="geometry" />
        </mxCell>
        <mxCell id="k88lvfV29TgzRFzSoSJi-5" value="&lt;div&gt;&lt;b&gt;Tokenization and feature extraction&lt;br&gt;&lt;/b&gt;&lt;/div&gt;&lt;div&gt;&lt;b&gt;&lt;br&gt;&lt;/b&gt;&lt;/div&gt;&lt;div&gt;&lt;b&gt;&lt;br&gt;&lt;/b&gt;&lt;/div&gt;&lt;div&gt;&lt;b&gt;&lt;br&gt;&lt;/b&gt;&lt;/div&gt;&lt;div&gt;&lt;b&gt;&lt;br&gt;&lt;/b&gt;&lt;/div&gt;" style="rounded=1;whiteSpace=wrap;html=1;" parent="WIyWlLk6GJQsqaUBKTNV-1" vertex="1">
          <mxGeometry x="323.5" y="110" width="416.5" height="90" as="geometry" />
        </mxCell>
        <mxCell id="k88lvfV29TgzRFzSoSJi-11" value="lemmatization" style="rounded=1;whiteSpace=wrap;html=1;" parent="WIyWlLk6GJQsqaUBKTNV-1" vertex="1">
          <mxGeometry x="340" y="140" width="90" height="20" as="geometry" />
        </mxCell>
        <mxCell id="k88lvfV29TgzRFzSoSJi-12" value="pos tags" style="rounded=1;whiteSpace=wrap;html=1;" parent="WIyWlLk6GJQsqaUBKTNV-1" vertex="1">
          <mxGeometry x="440" y="140" width="80" height="20" as="geometry" />
        </mxCell>
        <mxCell id="k88lvfV29TgzRFzSoSJi-13" value="dependencies" style="rounded=1;whiteSpace=wrap;html=1;" parent="WIyWlLk6GJQsqaUBKTNV-1" vertex="1">
          <mxGeometry x="638.5" y="170" width="90" height="20" as="geometry" />
        </mxCell>
        <mxCell id="k88lvfV29TgzRFzSoSJi-16" value="word length distribution" style="rounded=1;whiteSpace=wrap;html=1;" parent="WIyWlLk6GJQsqaUBKTNV-1" vertex="1">
          <mxGeometry x="340" y="170" width="150" height="20" as="geometry" />
        </mxCell>
        <mxCell id="k88lvfV29TgzRFzSoSJi-19" value="vocabulary richness" style="rounded=1;whiteSpace=wrap;html=1;" parent="WIyWlLk6GJQsqaUBKTNV-1" vertex="1">
          <mxGeometry x="500" y="170" width="130" height="20" as="geometry" />
        </mxCell>
        <mxCell id="k88lvfV29TgzRFzSoSJi-20" value="word embeddings" style="rounded=1;whiteSpace=wrap;html=1;" parent="WIyWlLk6GJQsqaUBKTNV-1" vertex="1">
          <mxGeometry x="530" y="140" width="200" height="20" as="geometry" />
        </mxCell>
        <mxCell id="k88lvfV29TgzRFzSoSJi-79" style="edgeStyle=orthogonalEdgeStyle;rounded=0;orthogonalLoop=1;jettySize=auto;html=1;exitX=0.5;exitY=1;exitDx=0;exitDy=0;entryX=0.5;entryY=0;entryDx=0;entryDy=0;" parent="WIyWlLk6GJQsqaUBKTNV-1" edge="1">
          <mxGeometry relative="1" as="geometry">
            <mxPoint x="420" y="530" as="sourcePoint" />
            <mxPoint x="420" y="585" as="targetPoint" />
          </mxGeometry>
        </mxCell>
        <mxCell id="k88lvfV29TgzRFzSoSJi-90" value="P&lt;sub&gt;RV &lt;/sub&gt;= KT&lt;sub&gt;RV&lt;/sub&gt;, UT&lt;sub&gt;RV&lt;/sub&gt;, C&lt;sub&gt;R&lt;/sub&gt;,C&lt;sub&gt;NR&lt;/sub&gt;" style="edgeLabel;html=1;align=center;verticalAlign=middle;resizable=0;points=[];" parent="k88lvfV29TgzRFzSoSJi-79" vertex="1" connectable="0">
          <mxGeometry x="-0.0182" relative="1" as="geometry">
            <mxPoint as="offset" />
          </mxGeometry>
        </mxCell>
        <mxCell id="k88lvfV29TgzRFzSoSJi-86" value="" style="group" parent="WIyWlLk6GJQsqaUBKTNV-1" vertex="1" connectable="0">
          <mxGeometry x="80" y="270" width="685" height="260" as="geometry" />
        </mxCell>
        <mxCell id="k88lvfV29TgzRFzSoSJi-43" style="edgeStyle=orthogonalEdgeStyle;rounded=0;orthogonalLoop=1;jettySize=auto;html=1;exitX=0.5;exitY=1;exitDx=0;exitDy=0;entryX=0.5;entryY=0;entryDx=0;entryDy=0;" parent="k88lvfV29TgzRFzSoSJi-86" source="k88lvfV29TgzRFzSoSJi-24" target="k88lvfV29TgzRFzSoSJi-27" edge="1">
          <mxGeometry relative="1" as="geometry" />
        </mxCell>
        <mxCell id="k88lvfV29TgzRFzSoSJi-47" style="edgeStyle=orthogonalEdgeStyle;rounded=0;orthogonalLoop=1;jettySize=auto;html=1;exitX=0.5;exitY=1;exitDx=0;exitDy=0;entryX=0.5;entryY=0;entryDx=0;entryDy=0;" parent="k88lvfV29TgzRFzSoSJi-86" source="k88lvfV29TgzRFzSoSJi-24" target="k88lvfV29TgzRFzSoSJi-26" edge="1">
          <mxGeometry relative="1" as="geometry" />
        </mxCell>
        <mxCell id="k88lvfV29TgzRFzSoSJi-59" style="edgeStyle=orthogonalEdgeStyle;rounded=0;orthogonalLoop=1;jettySize=auto;html=1;exitX=1;exitY=0.5;exitDx=0;exitDy=0;entryX=0.5;entryY=0;entryDx=0;entryDy=0;" parent="k88lvfV29TgzRFzSoSJi-86" source="k88lvfV29TgzRFzSoSJi-24" target="k88lvfV29TgzRFzSoSJi-31" edge="1">
          <mxGeometry relative="1" as="geometry" />
        </mxCell>
        <mxCell id="k88lvfV29TgzRFzSoSJi-24" value="lemmatization" style="rounded=1;whiteSpace=wrap;html=1;" parent="k88lvfV29TgzRFzSoSJi-86" vertex="1">
          <mxGeometry x="25" y="50" width="90" height="20" as="geometry" />
        </mxCell>
        <mxCell id="k88lvfV29TgzRFzSoSJi-72" style="edgeStyle=orthogonalEdgeStyle;rounded=0;orthogonalLoop=1;jettySize=auto;html=1;exitX=0.5;exitY=1;exitDx=0;exitDy=0;entryX=0.5;entryY=0;entryDx=0;entryDy=0;" parent="k88lvfV29TgzRFzSoSJi-86" source="k88lvfV29TgzRFzSoSJi-26" target="k88lvfV29TgzRFzSoSJi-57" edge="1">
          <mxGeometry relative="1" as="geometry">
            <Array as="points">
              <mxPoint x="155" y="210" />
              <mxPoint x="285" y="210" />
            </Array>
          </mxGeometry>
        </mxCell>
        <mxCell id="k88lvfV29TgzRFzSoSJi-26" value="BoW" style="rounded=1;whiteSpace=wrap;html=1;" parent="k88lvfV29TgzRFzSoSJi-86" vertex="1">
          <mxGeometry x="125" y="170" width="60" height="20" as="geometry" />
        </mxCell>
        <mxCell id="k88lvfV29TgzRFzSoSJi-73" style="edgeStyle=orthogonalEdgeStyle;rounded=0;orthogonalLoop=1;jettySize=auto;html=1;entryX=0.5;entryY=0;entryDx=0;entryDy=0;" parent="k88lvfV29TgzRFzSoSJi-86" source="k88lvfV29TgzRFzSoSJi-27" target="k88lvfV29TgzRFzSoSJi-57" edge="1">
          <mxGeometry relative="1" as="geometry">
            <Array as="points">
              <mxPoint x="80" y="210" />
              <mxPoint x="285" y="210" />
            </Array>
          </mxGeometry>
        </mxCell>
        <mxCell id="k88lvfV29TgzRFzSoSJi-27" value="TFIDF" style="rounded=1;whiteSpace=wrap;html=1;" parent="k88lvfV29TgzRFzSoSJi-86" vertex="1">
          <mxGeometry x="45" y="170" width="70" height="20" as="geometry" />
        </mxCell>
        <mxCell id="k88lvfV29TgzRFzSoSJi-60" style="edgeStyle=orthogonalEdgeStyle;rounded=0;orthogonalLoop=1;jettySize=auto;html=1;entryX=0.5;entryY=0;entryDx=0;entryDy=0;" parent="k88lvfV29TgzRFzSoSJi-86" source="k88lvfV29TgzRFzSoSJi-31" target="k88lvfV29TgzRFzSoSJi-27" edge="1">
          <mxGeometry relative="1" as="geometry">
            <Array as="points">
              <mxPoint x="155" y="120" />
              <mxPoint x="80" y="120" />
            </Array>
          </mxGeometry>
        </mxCell>
        <mxCell id="k88lvfV29TgzRFzSoSJi-61" style="edgeStyle=orthogonalEdgeStyle;rounded=0;orthogonalLoop=1;jettySize=auto;html=1;exitX=0.5;exitY=1;exitDx=0;exitDy=0;" parent="k88lvfV29TgzRFzSoSJi-86" source="k88lvfV29TgzRFzSoSJi-31" edge="1">
          <mxGeometry relative="1" as="geometry">
            <mxPoint x="155" y="170" as="targetPoint" />
          </mxGeometry>
        </mxCell>
        <mxCell id="k88lvfV29TgzRFzSoSJi-31" value="special characters" style="rounded=1;whiteSpace=wrap;html=1;" parent="k88lvfV29TgzRFzSoSJi-86" vertex="1">
          <mxGeometry x="95" y="80" width="120" height="20" as="geometry" />
        </mxCell>
        <mxCell id="k88lvfV29TgzRFzSoSJi-50" style="edgeStyle=orthogonalEdgeStyle;rounded=0;orthogonalLoop=1;jettySize=auto;html=1;exitX=0.5;exitY=1;exitDx=0;exitDy=0;entryX=0.5;entryY=0;entryDx=0;entryDy=0;" parent="k88lvfV29TgzRFzSoSJi-86" source="k88lvfV29TgzRFzSoSJi-32" target="k88lvfV29TgzRFzSoSJi-39" edge="1">
          <mxGeometry relative="1" as="geometry" />
        </mxCell>
        <mxCell id="k88lvfV29TgzRFzSoSJi-32" value="dependencies" style="rounded=1;whiteSpace=wrap;html=1;" parent="k88lvfV29TgzRFzSoSJi-86" vertex="1">
          <mxGeometry x="225" y="50" width="90" height="20" as="geometry" />
        </mxCell>
        <mxCell id="k88lvfV29TgzRFzSoSJi-74" style="edgeStyle=orthogonalEdgeStyle;rounded=0;orthogonalLoop=1;jettySize=auto;html=1;exitX=0.5;exitY=1;exitDx=0;exitDy=0;entryX=0.5;entryY=0;entryDx=0;entryDy=0;" parent="k88lvfV29TgzRFzSoSJi-86" source="k88lvfV29TgzRFzSoSJi-33" target="k88lvfV29TgzRFzSoSJi-57" edge="1">
          <mxGeometry relative="1" as="geometry">
            <Array as="points">
              <mxPoint x="440" y="210" />
              <mxPoint x="285" y="210" />
            </Array>
          </mxGeometry>
        </mxCell>
        <mxCell id="k88lvfV29TgzRFzSoSJi-33" value="WLD" style="rounded=1;whiteSpace=wrap;html=1;" parent="k88lvfV29TgzRFzSoSJi-86" vertex="1">
          <mxGeometry x="415" y="50" width="50" height="20" as="geometry" />
        </mxCell>
        <mxCell id="k88lvfV29TgzRFzSoSJi-75" style="edgeStyle=orthogonalEdgeStyle;rounded=0;orthogonalLoop=1;jettySize=auto;html=1;exitX=0.5;exitY=1;exitDx=0;exitDy=0;" parent="k88lvfV29TgzRFzSoSJi-86" source="k88lvfV29TgzRFzSoSJi-34" target="k88lvfV29TgzRFzSoSJi-57" edge="1">
          <mxGeometry relative="1" as="geometry">
            <Array as="points">
              <mxPoint x="501" y="210" />
              <mxPoint x="285" y="210" />
            </Array>
          </mxGeometry>
        </mxCell>
        <mxCell id="k88lvfV29TgzRFzSoSJi-34" value="VR" style="rounded=1;whiteSpace=wrap;html=1;" parent="k88lvfV29TgzRFzSoSJi-86" vertex="1">
          <mxGeometry x="475" y="50" width="51.5" height="20" as="geometry" />
        </mxCell>
        <mxCell id="k88lvfV29TgzRFzSoSJi-52" style="edgeStyle=orthogonalEdgeStyle;rounded=0;orthogonalLoop=1;jettySize=auto;html=1;exitX=0.5;exitY=1;exitDx=0;exitDy=0;entryX=0.5;entryY=0;entryDx=0;entryDy=0;" parent="k88lvfV29TgzRFzSoSJi-86" source="k88lvfV29TgzRFzSoSJi-37" target="k88lvfV29TgzRFzSoSJi-39" edge="1">
          <mxGeometry relative="1" as="geometry" />
        </mxCell>
        <mxCell id="k88lvfV29TgzRFzSoSJi-37" value="pos tags" style="rounded=1;whiteSpace=wrap;html=1;" parent="k88lvfV29TgzRFzSoSJi-86" vertex="1">
          <mxGeometry x="325" y="50" width="80" height="20" as="geometry" />
        </mxCell>
        <mxCell id="k88lvfV29TgzRFzSoSJi-65" style="edgeStyle=orthogonalEdgeStyle;rounded=0;orthogonalLoop=1;jettySize=auto;html=1;exitX=0.5;exitY=1;exitDx=0;exitDy=0;" parent="k88lvfV29TgzRFzSoSJi-86" source="k88lvfV29TgzRFzSoSJi-39" target="k88lvfV29TgzRFzSoSJi-57" edge="1">
          <mxGeometry relative="1" as="geometry" />
        </mxCell>
        <mxCell id="k88lvfV29TgzRFzSoSJi-39" value="Counter" style="rounded=1;whiteSpace=wrap;html=1;" parent="k88lvfV29TgzRFzSoSJi-86" vertex="1">
          <mxGeometry x="240" y="170" width="90" height="20" as="geometry" />
        </mxCell>
        <mxCell id="k88lvfV29TgzRFzSoSJi-57" value="absolute difference" style="rounded=1;whiteSpace=wrap;html=1;" parent="k88lvfV29TgzRFzSoSJi-86" vertex="1">
          <mxGeometry x="45" y="220" width="480" height="20" as="geometry" />
        </mxCell>
        <mxCell id="k88lvfV29TgzRFzSoSJi-76" style="edgeStyle=orthogonalEdgeStyle;rounded=0;orthogonalLoop=1;jettySize=auto;html=1;exitX=0.5;exitY=1;exitDx=0;exitDy=0;entryX=0.5;entryY=0;entryDx=0;entryDy=0;" parent="k88lvfV29TgzRFzSoSJi-86" source="k88lvfV29TgzRFzSoSJi-62" target="k88lvfV29TgzRFzSoSJi-64" edge="1">
          <mxGeometry relative="1" as="geometry" />
        </mxCell>
        <mxCell id="k88lvfV29TgzRFzSoSJi-62" value="word embeddings" style="rounded=1;whiteSpace=wrap;html=1;" parent="k88lvfV29TgzRFzSoSJi-86" vertex="1">
          <mxGeometry x="535" y="50" width="120" height="20" as="geometry" />
        </mxCell>
        <mxCell id="k88lvfV29TgzRFzSoSJi-64" value="cosine similarity" style="rounded=1;whiteSpace=wrap;html=1;" parent="k88lvfV29TgzRFzSoSJi-86" vertex="1">
          <mxGeometry x="530" y="220" width="130" height="20" as="geometry" />
        </mxCell>
        <mxCell id="k88lvfV29TgzRFzSoSJi-113" value="Preprocessing - feature extraction" style="swimlane;whiteSpace=wrap;html=1;fillColor=#f5f5f5;fontColor=#333333;strokeColor=#666666;" parent="k88lvfV29TgzRFzSoSJi-86" vertex="1">
          <mxGeometry width="680" height="260" as="geometry" />
        </mxCell>
        <mxCell id="k88lvfV29TgzRFzSoSJi-91" style="edgeStyle=orthogonalEdgeStyle;rounded=0;orthogonalLoop=1;jettySize=auto;html=1;exitX=0.5;exitY=1;exitDx=0;exitDy=0;entryX=0.5;entryY=0;entryDx=0;entryDy=0;" parent="WIyWlLk6GJQsqaUBKTNV-1" edge="1">
          <mxGeometry relative="1" as="geometry">
            <mxPoint x="420" y="725" as="sourcePoint" />
            <mxPoint x="420" y="780" as="targetPoint" />
          </mxGeometry>
        </mxCell>
        <mxCell id="k88lvfV29TgzRFzSoSJi-93" value="P&lt;sub&gt;RVS &lt;/sub&gt;= KT&lt;sub&gt;RVS&lt;/sub&gt;, UT&lt;sub&gt;RVS&lt;/sub&gt;, C&lt;sub&gt;R&lt;/sub&gt;,C&lt;sub&gt;NR&lt;/sub&gt;" style="edgeLabel;html=1;align=center;verticalAlign=middle;resizable=0;points=[];" parent="k88lvfV29TgzRFzSoSJi-91" vertex="1" connectable="0">
          <mxGeometry x="-0.0182" relative="1" as="geometry">
            <mxPoint as="offset" />
          </mxGeometry>
        </mxCell>
        <mxCell id="k88lvfV29TgzRFzSoSJi-99" style="edgeStyle=orthogonalEdgeStyle;rounded=0;orthogonalLoop=1;jettySize=auto;html=1;exitX=0.5;exitY=1;exitDx=0;exitDy=0;entryX=0.5;entryY=0;entryDx=0;entryDy=0;" parent="WIyWlLk6GJQsqaUBKTNV-1" target="k88lvfV29TgzRFzSoSJi-117" edge="1">
          <mxGeometry relative="1" as="geometry">
            <mxPoint x="420" y="920" as="sourcePoint" />
            <mxPoint x="417.5" y="960" as="targetPoint" />
          </mxGeometry>
        </mxCell>
        <mxCell id="k88lvfV29TgzRFzSoSJi-100" value="C&lt;sub&gt;R-pred&lt;/sub&gt;, C&lt;sub&gt;R&lt;/sub&gt;,C&lt;sub&gt;NR&lt;/sub&gt;" style="edgeLabel;html=1;align=center;verticalAlign=middle;resizable=0;points=[];" parent="k88lvfV29TgzRFzSoSJi-99" vertex="1" connectable="0">
          <mxGeometry x="-0.15" relative="1" as="geometry">
            <mxPoint as="offset" />
          </mxGeometry>
        </mxCell>
        <mxCell id="k88lvfV29TgzRFzSoSJi-111" value="Preprocessing 1" style="swimlane;whiteSpace=wrap;html=1;startSize=23;fillColor=#f5f5f5;fontColor=#333333;strokeColor=#666666;" parent="WIyWlLk6GJQsqaUBKTNV-1" vertex="1">
          <mxGeometry x="80" y="60" width="680" height="160" as="geometry" />
        </mxCell>
        <mxCell id="k88lvfV29TgzRFzSoSJi-115" value="Feature selection and feature ranking" style="swimlane;whiteSpace=wrap;html=1;fillColor=#f5f5f5;fontColor=#333333;strokeColor=#666666;" parent="WIyWlLk6GJQsqaUBKTNV-1" vertex="1">
          <mxGeometry x="80" y="585" width="680" height="135" as="geometry" />
        </mxCell>
        <mxCell id="k88lvfV29TgzRFzSoSJi-78" value="&lt;div&gt;&lt;b&gt;Feature ranking&lt;/b&gt;&lt;br&gt;&lt;/div&gt;&lt;div&gt;&lt;br&gt;&lt;/div&gt;&lt;div&gt;Chi-squared.&amp;nbsp;&lt;/div&gt;&lt;div&gt;Select 100 best.&lt;br&gt;&lt;/div&gt;" style="rounded=1;whiteSpace=wrap;html=1;" parent="k88lvfV29TgzRFzSoSJi-115" vertex="1">
          <mxGeometry x="160" y="35" width="120" height="90" as="geometry" />
        </mxCell>
        <mxCell id="k88lvfV29TgzRFzSoSJi-80" value="&lt;div&gt;&lt;b&gt;Feature Scaling&lt;/b&gt;&lt;br&gt;&lt;/div&gt;&lt;div&gt;&lt;br&gt;&lt;/div&gt;&lt;div&gt;MinMaxScaler&lt;/div&gt;&lt;div&gt;StandardScaler&lt;br&gt;&lt;/div&gt;" style="rounded=1;whiteSpace=wrap;html=1;" parent="k88lvfV29TgzRFzSoSJi-115" vertex="1">
          <mxGeometry x="360" y="35" width="136.5" height="90" as="geometry" />
        </mxCell>
        <mxCell id="k88lvfV29TgzRFzSoSJi-81" style="edgeStyle=orthogonalEdgeStyle;rounded=0;orthogonalLoop=1;jettySize=auto;html=1;exitX=1;exitY=0.5;exitDx=0;exitDy=0;entryX=0;entryY=0.5;entryDx=0;entryDy=0;" parent="k88lvfV29TgzRFzSoSJi-115" source="k88lvfV29TgzRFzSoSJi-78" target="k88lvfV29TgzRFzSoSJi-80" edge="1">
          <mxGeometry relative="1" as="geometry" />
        </mxCell>
        <mxCell id="k88lvfV29TgzRFzSoSJi-116" value="Classification" style="swimlane;whiteSpace=wrap;html=1;fillColor=#f5f5f5;fontColor=#333333;strokeColor=#666666;" parent="WIyWlLk6GJQsqaUBKTNV-1" vertex="1">
          <mxGeometry x="80" y="790" width="680" height="130" as="geometry" />
        </mxCell>
        <mxCell id="k88lvfV29TgzRFzSoSJi-83" value="&lt;div&gt;Support&lt;/div&gt;&lt;div&gt;Vector&lt;/div&gt;&lt;div&gt;Machine&lt;/div&gt;" style="rounded=1;whiteSpace=wrap;html=1;" parent="k88lvfV29TgzRFzSoSJi-116" vertex="1">
          <mxGeometry x="97.13" y="40" width="120" height="65" as="geometry" />
        </mxCell>
        <mxCell id="k88lvfV29TgzRFzSoSJi-84" value="&lt;div&gt;Logistic&lt;/div&gt;&lt;div&gt;&amp;nbsp;Regression&lt;/div&gt;" style="rounded=1;whiteSpace=wrap;html=1;" parent="k88lvfV29TgzRFzSoSJi-116" vertex="1">
          <mxGeometry x="287.13" y="40" width="120" height="65" as="geometry" />
        </mxCell>
        <mxCell id="k88lvfV29TgzRFzSoSJi-85" value="&lt;div&gt;Naive Bayes&lt;/div&gt;&lt;div&gt;Multinominal&lt;br&gt;&lt;/div&gt;" style="rounded=1;whiteSpace=wrap;html=1;" parent="k88lvfV29TgzRFzSoSJi-116" vertex="1">
          <mxGeometry x="462.88" y="40" width="120" height="65" as="geometry" />
        </mxCell>
        <mxCell id="k88lvfV29TgzRFzSoSJi-117" value="Evaluation" style="swimlane;whiteSpace=wrap;html=1;fillColor=#f5f5f5;fontColor=#333333;strokeColor=#666666;" parent="WIyWlLk6GJQsqaUBKTNV-1" vertex="1">
          <mxGeometry x="80" y="1000" width="680" height="197" as="geometry" />
        </mxCell>
        <mxCell id="k88lvfV29TgzRFzSoSJi-96" value="Rolling recomposition" style="rounded=1;whiteSpace=wrap;html=1;" parent="k88lvfV29TgzRFzSoSJi-117" vertex="1">
          <mxGeometry x="29" y="81" width="120" height="74" as="geometry" />
        </mxCell>
        <mxCell id="k88lvfV29TgzRFzSoSJi-101" value="&lt;div&gt;&lt;b&gt;Evaluation&lt;/b&gt;&lt;/div&gt;&lt;div&gt;&lt;b&gt;&lt;br&gt;&lt;/b&gt;&lt;/div&gt;&lt;div&gt;FNR, TNR, AUROC&lt;br&gt;&lt;/div&gt;" style="rounded=1;whiteSpace=wrap;html=1;" parent="k88lvfV29TgzRFzSoSJi-117" vertex="1">
          <mxGeometry x="269" y="81" width="120" height="74" as="geometry" />
        </mxCell>
        <mxCell id="k88lvfV29TgzRFzSoSJi-104" value="&lt;div&gt;&lt;b&gt;Evaluation&lt;/b&gt;&lt;/div&gt;&lt;div&gt;PCC in P&lt;sub&gt;N&lt;/sub&gt;&lt;br&gt;&lt;/div&gt;" style="rounded=1;whiteSpace=wrap;html=1;" parent="k88lvfV29TgzRFzSoSJi-117" vertex="1">
          <mxGeometry x="431.5" y="47" width="207.5" height="34" as="geometry" />
        </mxCell>
        <mxCell id="k88lvfV29TgzRFzSoSJi-105" value="&lt;div&gt;&lt;b&gt;Evaluation&lt;/b&gt;&lt;/div&gt;&lt;div&gt;PCC left or right location in P&lt;sub&gt;N&lt;/sub&gt;&lt;br&gt;&lt;/div&gt;" style="rounded=1;whiteSpace=wrap;html=1;" parent="k88lvfV29TgzRFzSoSJi-117" vertex="1">
          <mxGeometry x="431.5" y="88" width="207.5" height="34" as="geometry" />
        </mxCell>
        <mxCell id="k88lvfV29TgzRFzSoSJi-106" value="&lt;div&gt;&lt;b&gt;Evaluation&lt;/b&gt;&lt;/div&gt;&lt;div&gt;PCC exact location in P&lt;sub&gt;N&lt;/sub&gt;&lt;br&gt;&lt;/div&gt;" style="rounded=1;whiteSpace=wrap;html=1;" parent="k88lvfV29TgzRFzSoSJi-117" vertex="1">
          <mxGeometry x="431.5" y="130" width="207.5" height="40" as="geometry" />
        </mxCell>
        <mxCell id="k88lvfV29TgzRFzSoSJi-102" style="edgeStyle=orthogonalEdgeStyle;rounded=0;orthogonalLoop=1;jettySize=auto;html=1;entryX=0;entryY=0.5;entryDx=0;entryDy=0;" parent="k88lvfV29TgzRFzSoSJi-117" source="k88lvfV29TgzRFzSoSJi-96" target="k88lvfV29TgzRFzSoSJi-101" edge="1">
          <mxGeometry relative="1" as="geometry" />
        </mxCell>
        <mxCell id="k88lvfV29TgzRFzSoSJi-103" value="C&lt;sub&gt;NR-pred&lt;/sub&gt;, C&lt;sub&gt;NR&lt;/sub&gt;" style="edgeLabel;html=1;align=center;verticalAlign=middle;resizable=0;points=[];" parent="k88lvfV29TgzRFzSoSJi-102" vertex="1" connectable="0">
          <mxGeometry x="-0.2182" relative="1" as="geometry">
            <mxPoint x="11" as="offset" />
          </mxGeometry>
        </mxCell>
        <mxCell id="k88lvfV29TgzRFzSoSJi-110" style="edgeStyle=orthogonalEdgeStyle;rounded=0;orthogonalLoop=1;jettySize=auto;html=1;entryX=0;entryY=0.5;entryDx=0;entryDy=0;" parent="k88lvfV29TgzRFzSoSJi-117" source="k88lvfV29TgzRFzSoSJi-101" target="k88lvfV29TgzRFzSoSJi-106" edge="1">
          <mxGeometry relative="1" as="geometry" />
        </mxCell>
        <mxCell id="k88lvfV29TgzRFzSoSJi-109" style="edgeStyle=orthogonalEdgeStyle;rounded=0;orthogonalLoop=1;jettySize=auto;html=1;entryX=0;entryY=0.5;entryDx=0;entryDy=0;" parent="k88lvfV29TgzRFzSoSJi-117" source="k88lvfV29TgzRFzSoSJi-101" target="k88lvfV29TgzRFzSoSJi-105" edge="1">
          <mxGeometry relative="1" as="geometry" />
        </mxCell>
        <mxCell id="k88lvfV29TgzRFzSoSJi-108" style="edgeStyle=orthogonalEdgeStyle;rounded=0;orthogonalLoop=1;jettySize=auto;html=1;entryX=0;entryY=0.5;entryDx=0;entryDy=0;" parent="k88lvfV29TgzRFzSoSJi-117" source="k88lvfV29TgzRFzSoSJi-101" target="k88lvfV29TgzRFzSoSJi-104" edge="1">
          <mxGeometry relative="1" as="geometry" />
        </mxCell>
        <mxCell id="bKfOvLc6IBcyzpDQpMHL-0" style="edgeStyle=orthogonalEdgeStyle;rounded=0;orthogonalLoop=1;jettySize=auto;html=1;exitX=0.5;exitY=1;exitDx=0;exitDy=0;entryX=0.5;entryY=0;entryDx=0;entryDy=0;" edge="1" parent="WIyWlLk6GJQsqaUBKTNV-1">
          <mxGeometry relative="1" as="geometry">
            <mxPoint x="810" y="950" as="sourcePoint" />
            <mxPoint x="810" y="970" as="targetPoint" />
          </mxGeometry>
        </mxCell>
        <mxCell id="bKfOvLc6IBcyzpDQpMHL-13" style="edgeStyle=orthogonalEdgeStyle;rounded=0;orthogonalLoop=1;jettySize=auto;html=1;" edge="1" parent="WIyWlLk6GJQsqaUBKTNV-1">
          <mxGeometry relative="1" as="geometry">
            <mxPoint x="810" y="680" as="sourcePoint" />
            <mxPoint x="810" y="720" as="targetPoint" />
          </mxGeometry>
        </mxCell>
        <mxCell id="bKfOvLc6IBcyzpDQpMHL-15" value="Rolling selection" style="swimlane;whiteSpace=wrap;html=1;fillColor=#f5f5f5;fontColor=#333333;strokeColor=#666666;" vertex="1" parent="WIyWlLk6GJQsqaUBKTNV-1">
          <mxGeometry x="470" y="1554" width="680" height="1986" as="geometry">
            <mxRectangle x="60.75" y="954" width="130" height="30" as="alternateBounds" />
          </mxGeometry>
        </mxCell>
        <mxCell id="bKfOvLc6IBcyzpDQpMHL-16" value="" style="group;" vertex="1" connectable="0" parent="bKfOvLc6IBcyzpDQpMHL-15">
          <mxGeometry x="200" y="30" width="268" height="30" as="geometry" />
        </mxCell>
        <mxCell id="bKfOvLc6IBcyzpDQpMHL-17" value="`P_N = KT_N, UT_N`" style="text;html=1;align=center;verticalAlign=middle;whiteSpace=wrap;rounded=0;" vertex="1" parent="bKfOvLc6IBcyzpDQpMHL-16">
          <mxGeometry x="144" width="124" height="30" as="geometry" />
        </mxCell>
        <mxCell id="bKfOvLc6IBcyzpDQpMHL-18" value="`P_1 = KT_1, UT_1`" style="text;html=1;align=center;verticalAlign=middle;whiteSpace=wrap;rounded=0;" vertex="1" parent="bKfOvLc6IBcyzpDQpMHL-16">
          <mxGeometry width="124" height="30" as="geometry" />
        </mxCell>
        <mxCell id="bKfOvLc6IBcyzpDQpMHL-19" style="edgeStyle=orthogonalEdgeStyle;rounded=0;orthogonalLoop=1;jettySize=auto;html=1;" edge="1" parent="bKfOvLc6IBcyzpDQpMHL-16" source="bKfOvLc6IBcyzpDQpMHL-18" target="bKfOvLc6IBcyzpDQpMHL-17">
          <mxGeometry relative="1" as="geometry" />
        </mxCell>
        <mxCell id="bKfOvLc6IBcyzpDQpMHL-20" value="Rolling selection on `UT_1`" style="swimlane;whiteSpace=wrap;html=1;fillColor=#f5f5f5;fontColor=#333333;strokeColor=#666666;" vertex="1" parent="bKfOvLc6IBcyzpDQpMHL-15">
          <mxGeometry x="40" y="426" width="600" height="204" as="geometry" />
        </mxCell>
        <mxCell id="bKfOvLc6IBcyzpDQpMHL-21" value="`P_1`" style="rounded=0;whiteSpace=wrap;html=1;" vertex="1" parent="bKfOvLc6IBcyzpDQpMHL-20">
          <mxGeometry x="112" y="30" width="80" height="25" as="geometry" />
        </mxCell>
        <mxCell id="bKfOvLc6IBcyzpDQpMHL-22" value="`P_2`" style="rounded=0;whiteSpace=wrap;html=1;" vertex="1" parent="bKfOvLc6IBcyzpDQpMHL-20">
          <mxGeometry x="207" y="30" width="80" height="25" as="geometry" />
        </mxCell>
        <mxCell id="bKfOvLc6IBcyzpDQpMHL-23" value="`P_3`" style="rounded=0;whiteSpace=wrap;html=1;" vertex="1" parent="bKfOvLc6IBcyzpDQpMHL-20">
          <mxGeometry x="303" y="30" width="80" height="25" as="geometry" />
        </mxCell>
        <mxCell id="bKfOvLc6IBcyzpDQpMHL-24" value="`P_4`" style="rounded=0;whiteSpace=wrap;html=1;" vertex="1" parent="bKfOvLc6IBcyzpDQpMHL-20">
          <mxGeometry x="393" y="30" width="80" height="25" as="geometry" />
        </mxCell>
        <mxCell id="bKfOvLc6IBcyzpDQpMHL-25" value="&lt;div&gt;&lt;br&gt;&lt;/div&gt;&lt;div&gt;`P_1, P_2`&lt;br&gt;&lt;/div&gt;" style="shape=crossbar;whiteSpace=wrap;html=1;rounded=1;" vertex="1" parent="bKfOvLc6IBcyzpDQpMHL-20">
          <mxGeometry x="112" y="60" width="177.5" height="20" as="geometry" />
        </mxCell>
        <mxCell id="bKfOvLc6IBcyzpDQpMHL-26" value="&lt;div&gt;&lt;br&gt;&lt;/div&gt;&lt;div&gt;`P_2, P_3`&lt;/div&gt;" style="shape=crossbar;whiteSpace=wrap;html=1;rounded=1;" vertex="1" parent="bKfOvLc6IBcyzpDQpMHL-20">
          <mxGeometry x="198.25" y="84" width="190.5" height="20" as="geometry" />
        </mxCell>
        <mxCell id="bKfOvLc6IBcyzpDQpMHL-27" value="&lt;div&gt;&lt;br&gt;&lt;/div&gt;&lt;div&gt;`P_3, P_4`&lt;br&gt;&lt;/div&gt;" style="shape=crossbar;whiteSpace=wrap;html=1;rounded=1;" vertex="1" parent="bKfOvLc6IBcyzpDQpMHL-20">
          <mxGeometry x="303" y="108" width="173" height="20" as="geometry" />
        </mxCell>
        <mxCell id="bKfOvLc6IBcyzpDQpMHL-28" value="" style="shape=curlyBracket;whiteSpace=wrap;html=1;rounded=1;labelPosition=left;verticalLabelPosition=middle;align=right;verticalAlign=middle;rotation=-90;" vertex="1" parent="bKfOvLc6IBcyzpDQpMHL-20">
          <mxGeometry x="379.5" y="60" width="20" height="176" as="geometry" />
        </mxCell>
        <mxCell id="bKfOvLc6IBcyzpDQpMHL-29" value="" style="shape=curlyBracket;whiteSpace=wrap;html=1;rounded=1;labelPosition=left;verticalLabelPosition=middle;align=right;verticalAlign=middle;rotation=-90;" vertex="1" parent="bKfOvLc6IBcyzpDQpMHL-20">
          <mxGeometry x="237" y="97" width="20" height="102" as="geometry" />
        </mxCell>
        <mxCell id="bKfOvLc6IBcyzpDQpMHL-30" value="k = 2" style="text;html=1;align=center;verticalAlign=middle;whiteSpace=wrap;rounded=0;" vertex="1" parent="bKfOvLc6IBcyzpDQpMHL-20">
          <mxGeometry x="359.5" y="165" width="60" height="30" as="geometry" />
        </mxCell>
        <mxCell id="bKfOvLc6IBcyzpDQpMHL-31" value="d = 1" style="text;html=1;align=center;verticalAlign=middle;whiteSpace=wrap;rounded=0;" vertex="1" parent="bKfOvLc6IBcyzpDQpMHL-20">
          <mxGeometry x="217" y="165" width="60" height="30" as="geometry" />
        </mxCell>
        <mxCell id="bKfOvLc6IBcyzpDQpMHL-32" value="AND the rolling selected parts in `C_1`" style="swimlane;whiteSpace=wrap;html=1;fillColor=#f5f5f5;fontColor=#333333;strokeColor=#666666;" vertex="1" parent="bKfOvLc6IBcyzpDQpMHL-15">
          <mxGeometry x="40" y="646" width="600" height="160" as="geometry" />
        </mxCell>
        <mxCell id="bKfOvLc6IBcyzpDQpMHL-33" value="1" style="rounded=0;whiteSpace=wrap;html=1;" vertex="1" parent="bKfOvLc6IBcyzpDQpMHL-32">
          <mxGeometry x="118" y="30" width="80" height="25" as="geometry" />
        </mxCell>
        <mxCell id="bKfOvLc6IBcyzpDQpMHL-34" value="1" style="rounded=0;whiteSpace=wrap;html=1;" vertex="1" parent="bKfOvLc6IBcyzpDQpMHL-32">
          <mxGeometry x="214" y="30" width="80" height="25" as="geometry" />
        </mxCell>
        <mxCell id="bKfOvLc6IBcyzpDQpMHL-35" value="1" style="rounded=0;whiteSpace=wrap;html=1;" vertex="1" parent="bKfOvLc6IBcyzpDQpMHL-32">
          <mxGeometry x="307.5" y="30" width="80" height="25" as="geometry" />
        </mxCell>
        <mxCell id="bKfOvLc6IBcyzpDQpMHL-36" value="0" style="rounded=0;whiteSpace=wrap;html=1;" vertex="1" parent="bKfOvLc6IBcyzpDQpMHL-32">
          <mxGeometry x="402" y="30" width="80" height="25" as="geometry" />
        </mxCell>
        <mxCell id="bKfOvLc6IBcyzpDQpMHL-37" value="`P_1, P_2`&lt;br&gt;&lt;div style=&quot;line-height: 140%;&quot;&gt;1 AND 1 = 1&lt;/div&gt;" style="shape=crossbar;whiteSpace=wrap;html=1;rounded=1;" vertex="1" parent="bKfOvLc6IBcyzpDQpMHL-32">
          <mxGeometry x="118" y="64" width="177.5" height="20" as="geometry" />
        </mxCell>
        <mxCell id="bKfOvLc6IBcyzpDQpMHL-38" value="&lt;p style=&quot;line-height: 140%;&quot;&gt;&lt;/p&gt;&lt;div style=&quot;line-height: 140%;&quot;&gt;`P_2, P_3`&lt;br&gt;&lt;/div&gt;&lt;div style=&quot;line-height: 140%;&quot;&gt;1 AND 1 = 1&lt;br&gt;&lt;/div&gt;&lt;p&gt;&lt;/p&gt;" style="shape=crossbar;whiteSpace=wrap;html=1;rounded=1;" vertex="1" parent="bKfOvLc6IBcyzpDQpMHL-32">
          <mxGeometry x="205.75" y="94" width="190.5" height="20" as="geometry" />
        </mxCell>
        <mxCell id="bKfOvLc6IBcyzpDQpMHL-39" value="&lt;p style=&quot;line-height: 140%;&quot;&gt;&lt;/p&gt;&lt;div style=&quot;line-height: 140%;&quot;&gt;`P_3, P_4`&lt;br&gt;&lt;/div&gt;&lt;div style=&quot;line-height: 140%;&quot;&gt;1 AND 0 = 0&lt;br&gt;&lt;/div&gt;&lt;p&gt;&lt;/p&gt;" style="shape=crossbar;whiteSpace=wrap;html=1;rounded=1;" vertex="1" parent="bKfOvLc6IBcyzpDQpMHL-32">
          <mxGeometry x="309" y="124" width="173" height="20" as="geometry" />
        </mxCell>
        <mxCell id="bKfOvLc6IBcyzpDQpMHL-40" value="`KT_1`" style="swimlane;whiteSpace=wrap;html=1;" vertex="1" parent="bKfOvLc6IBcyzpDQpMHL-15">
          <mxGeometry x="80" y="1384" width="114" height="360" as="geometry" />
        </mxCell>
        <mxCell id="bKfOvLc6IBcyzpDQpMHL-41" value="`P_1`" style="rounded=0;whiteSpace=wrap;html=1;" vertex="1" parent="bKfOvLc6IBcyzpDQpMHL-40">
          <mxGeometry x="20" y="30" width="80" height="25" as="geometry" />
        </mxCell>
        <mxCell id="bKfOvLc6IBcyzpDQpMHL-42" value="&lt;div&gt;`P_1`&lt;/div&gt;" style="rounded=0;whiteSpace=wrap;html=1;" vertex="1" parent="bKfOvLc6IBcyzpDQpMHL-40">
          <mxGeometry x="20" y="66" width="80" height="25" as="geometry" />
        </mxCell>
        <mxCell id="bKfOvLc6IBcyzpDQpMHL-43" value="&lt;div&gt;`P_1`&lt;/div&gt;" style="rounded=0;whiteSpace=wrap;html=1;" vertex="1" parent="bKfOvLc6IBcyzpDQpMHL-40">
          <mxGeometry x="20" y="103" width="80" height="25" as="geometry" />
        </mxCell>
        <mxCell id="bKfOvLc6IBcyzpDQpMHL-44" value="`P_3`" style="rounded=0;whiteSpace=wrap;html=1;" vertex="1" parent="bKfOvLc6IBcyzpDQpMHL-40">
          <mxGeometry x="20" y="248" width="80" height="25" as="geometry" />
        </mxCell>
        <mxCell id="bKfOvLc6IBcyzpDQpMHL-45" value="&lt;div&gt;`P_3`&lt;/div&gt;" style="rounded=0;whiteSpace=wrap;html=1;" vertex="1" parent="bKfOvLc6IBcyzpDQpMHL-40">
          <mxGeometry x="20" y="284" width="80" height="25" as="geometry" />
        </mxCell>
        <mxCell id="bKfOvLc6IBcyzpDQpMHL-46" value="&lt;div&gt;`P_3`&lt;/div&gt;" style="rounded=0;whiteSpace=wrap;html=1;" vertex="1" parent="bKfOvLc6IBcyzpDQpMHL-40">
          <mxGeometry x="20" y="321" width="80" height="25" as="geometry" />
        </mxCell>
        <mxCell id="bKfOvLc6IBcyzpDQpMHL-47" value="`P_2`" style="rounded=0;whiteSpace=wrap;html=1;" vertex="1" parent="bKfOvLc6IBcyzpDQpMHL-40">
          <mxGeometry x="20" y="139" width="80" height="25" as="geometry" />
        </mxCell>
        <mxCell id="bKfOvLc6IBcyzpDQpMHL-48" value="&lt;div&gt;`P_2`&lt;/div&gt;" style="rounded=0;whiteSpace=wrap;html=1;" vertex="1" parent="bKfOvLc6IBcyzpDQpMHL-40">
          <mxGeometry x="20" y="175" width="80" height="25" as="geometry" />
        </mxCell>
        <mxCell id="bKfOvLc6IBcyzpDQpMHL-49" value="&lt;div&gt;`P_2`&lt;/div&gt;" style="rounded=0;whiteSpace=wrap;html=1;" vertex="1" parent="bKfOvLc6IBcyzpDQpMHL-40">
          <mxGeometry x="20" y="211" width="80" height="25" as="geometry" />
        </mxCell>
        <mxCell id="bKfOvLc6IBcyzpDQpMHL-50" value="`UT_1`" style="swimlane;whiteSpace=wrap;html=1;" vertex="1" parent="bKfOvLc6IBcyzpDQpMHL-15">
          <mxGeometry x="220" y="1384" width="104" height="360" as="geometry" />
        </mxCell>
        <mxCell id="bKfOvLc6IBcyzpDQpMHL-51" value="`P_1, P_2`" style="rounded=0;whiteSpace=wrap;html=1;" vertex="1" parent="bKfOvLc6IBcyzpDQpMHL-50">
          <mxGeometry x="12" y="30" width="80" height="25" as="geometry" />
        </mxCell>
        <mxCell id="bKfOvLc6IBcyzpDQpMHL-52" value="`P_2, P_3`" style="rounded=0;whiteSpace=wrap;html=1;" vertex="1" parent="bKfOvLc6IBcyzpDQpMHL-50">
          <mxGeometry x="12" y="65" width="80" height="25" as="geometry" />
        </mxCell>
        <mxCell id="bKfOvLc6IBcyzpDQpMHL-53" value="`P_3, P_4`" style="rounded=0;whiteSpace=wrap;html=1;" vertex="1" parent="bKfOvLc6IBcyzpDQpMHL-50">
          <mxGeometry x="12" y="101" width="80" height="25" as="geometry" />
        </mxCell>
        <mxCell id="bKfOvLc6IBcyzpDQpMHL-54" value="`P_1, P_2`" style="rounded=0;whiteSpace=wrap;html=1;" vertex="1" parent="bKfOvLc6IBcyzpDQpMHL-50">
          <mxGeometry x="12" y="140" width="80" height="25" as="geometry" />
        </mxCell>
        <mxCell id="bKfOvLc6IBcyzpDQpMHL-55" value="`P_2, P_3`" style="rounded=0;whiteSpace=wrap;html=1;" vertex="1" parent="bKfOvLc6IBcyzpDQpMHL-50">
          <mxGeometry x="12" y="175" width="80" height="25" as="geometry" />
        </mxCell>
        <mxCell id="bKfOvLc6IBcyzpDQpMHL-56" value="`P_3, P_4`" style="rounded=0;whiteSpace=wrap;html=1;" vertex="1" parent="bKfOvLc6IBcyzpDQpMHL-50">
          <mxGeometry x="12" y="211" width="80" height="25" as="geometry" />
        </mxCell>
        <mxCell id="bKfOvLc6IBcyzpDQpMHL-57" value="`P_1, P_2`" style="rounded=0;whiteSpace=wrap;html=1;" vertex="1" parent="bKfOvLc6IBcyzpDQpMHL-50">
          <mxGeometry x="14" y="250" width="80" height="25" as="geometry" />
        </mxCell>
        <mxCell id="bKfOvLc6IBcyzpDQpMHL-58" value="`P_2, P_3`" style="rounded=0;whiteSpace=wrap;html=1;" vertex="1" parent="bKfOvLc6IBcyzpDQpMHL-50">
          <mxGeometry x="14" y="285" width="80" height="25" as="geometry" />
        </mxCell>
        <mxCell id="bKfOvLc6IBcyzpDQpMHL-59" value="`P_3, P_4`" style="rounded=0;whiteSpace=wrap;html=1;" vertex="1" parent="bKfOvLc6IBcyzpDQpMHL-50">
          <mxGeometry x="14" y="321" width="80" height="25" as="geometry" />
        </mxCell>
        <mxCell id="bKfOvLc6IBcyzpDQpMHL-60" value="`C_1`" style="swimlane;whiteSpace=wrap;html=1;" vertex="1" parent="bKfOvLc6IBcyzpDQpMHL-15">
          <mxGeometry x="355" y="1384" width="104" height="360" as="geometry" />
        </mxCell>
        <mxCell id="bKfOvLc6IBcyzpDQpMHL-61" value="1" style="rounded=0;whiteSpace=wrap;html=1;" vertex="1" parent="bKfOvLc6IBcyzpDQpMHL-60">
          <mxGeometry x="12" y="30" width="80" height="25" as="geometry" />
        </mxCell>
        <mxCell id="bKfOvLc6IBcyzpDQpMHL-62" value="1" style="rounded=0;whiteSpace=wrap;html=1;" vertex="1" parent="bKfOvLc6IBcyzpDQpMHL-60">
          <mxGeometry x="12" y="65" width="80" height="25" as="geometry" />
        </mxCell>
        <mxCell id="bKfOvLc6IBcyzpDQpMHL-63" value="0" style="rounded=0;whiteSpace=wrap;html=1;" vertex="1" parent="bKfOvLc6IBcyzpDQpMHL-60">
          <mxGeometry x="12" y="101" width="80" height="25" as="geometry" />
        </mxCell>
        <mxCell id="bKfOvLc6IBcyzpDQpMHL-64" value="1" style="rounded=0;whiteSpace=wrap;html=1;" vertex="1" parent="bKfOvLc6IBcyzpDQpMHL-60">
          <mxGeometry x="12" y="140" width="80" height="25" as="geometry" />
        </mxCell>
        <mxCell id="bKfOvLc6IBcyzpDQpMHL-65" value="1" style="rounded=0;whiteSpace=wrap;html=1;" vertex="1" parent="bKfOvLc6IBcyzpDQpMHL-60">
          <mxGeometry x="12" y="175" width="80" height="25" as="geometry" />
        </mxCell>
        <mxCell id="bKfOvLc6IBcyzpDQpMHL-66" value="0" style="rounded=0;whiteSpace=wrap;html=1;" vertex="1" parent="bKfOvLc6IBcyzpDQpMHL-60">
          <mxGeometry x="12" y="211" width="80" height="25" as="geometry" />
        </mxCell>
        <mxCell id="bKfOvLc6IBcyzpDQpMHL-67" value="1" style="rounded=0;whiteSpace=wrap;html=1;" vertex="1" parent="bKfOvLc6IBcyzpDQpMHL-60">
          <mxGeometry x="12" y="250" width="80" height="25" as="geometry" />
        </mxCell>
        <mxCell id="bKfOvLc6IBcyzpDQpMHL-68" value="1" style="rounded=0;whiteSpace=wrap;html=1;" vertex="1" parent="bKfOvLc6IBcyzpDQpMHL-60">
          <mxGeometry x="12" y="285" width="80" height="25" as="geometry" />
        </mxCell>
        <mxCell id="bKfOvLc6IBcyzpDQpMHL-69" value="0" style="rounded=0;whiteSpace=wrap;html=1;" vertex="1" parent="bKfOvLc6IBcyzpDQpMHL-60">
          <mxGeometry x="12" y="321" width="80" height="25" as="geometry" />
        </mxCell>
        <mxCell id="bKfOvLc6IBcyzpDQpMHL-70" style="edgeStyle=orthogonalEdgeStyle;rounded=0;orthogonalLoop=1;jettySize=auto;html=1;exitX=1;exitY=0.5;exitDx=0;exitDy=0;entryX=0;entryY=0.5;entryDx=0;entryDy=0;" edge="1" parent="bKfOvLc6IBcyzpDQpMHL-15" source="bKfOvLc6IBcyzpDQpMHL-41" target="bKfOvLc6IBcyzpDQpMHL-51">
          <mxGeometry relative="1" as="geometry" />
        </mxCell>
        <mxCell id="bKfOvLc6IBcyzpDQpMHL-71" style="edgeStyle=orthogonalEdgeStyle;rounded=0;orthogonalLoop=1;jettySize=auto;html=1;exitX=1;exitY=0.5;exitDx=0;exitDy=0;entryX=0;entryY=0.5;entryDx=0;entryDy=0;" edge="1" parent="bKfOvLc6IBcyzpDQpMHL-15" source="bKfOvLc6IBcyzpDQpMHL-51" target="bKfOvLc6IBcyzpDQpMHL-61">
          <mxGeometry relative="1" as="geometry" />
        </mxCell>
        <mxCell id="bKfOvLc6IBcyzpDQpMHL-72" style="edgeStyle=orthogonalEdgeStyle;rounded=0;orthogonalLoop=1;jettySize=auto;html=1;entryX=0;entryY=0.5;entryDx=0;entryDy=0;" edge="1" parent="bKfOvLc6IBcyzpDQpMHL-15" source="bKfOvLc6IBcyzpDQpMHL-69" target="bKfOvLc6IBcyzpDQpMHL-137">
          <mxGeometry relative="1" as="geometry">
            <mxPoint x="579.25" y="1719.5" as="targetPoint" />
          </mxGeometry>
        </mxCell>
        <mxCell id="bKfOvLc6IBcyzpDQpMHL-73" value="Example with Rolling Attribution" style="swimlane;whiteSpace=wrap;html=1;fillColor=#f5f5f5;strokeColor=#666666;fontColor=#333333;" vertex="1" parent="bKfOvLc6IBcyzpDQpMHL-15">
          <mxGeometry x="39.63" y="60" width="600.37" height="70" as="geometry" />
        </mxCell>
        <mxCell id="bKfOvLc6IBcyzpDQpMHL-74" value="&lt;div&gt;Given an example of `P_1 = KT_1, UT_1`&amp;nbsp;&lt;/div&gt;&lt;div&gt;where `&quot;len&quot;(KT_1) = 2`, `&quot;len&quot;(UT_1) = 4` and `P_4` in `UT_1` is `&quot;PCC&quot;`&lt;/div&gt;" style="text;html=1;align=center;verticalAlign=middle;whiteSpace=wrap;rounded=0;" vertex="1" parent="bKfOvLc6IBcyzpDQpMHL-73">
          <mxGeometry y="30" width="600" height="30" as="geometry" />
        </mxCell>
        <mxCell id="bKfOvLc6IBcyzpDQpMHL-75" value="`P_1 = KT_1, UT_2, C1`" style="swimlane;whiteSpace=wrap;html=1;fillColor=#f5f5f5;strokeColor=#666666;fontColor=#333333;" vertex="1" parent="bKfOvLc6IBcyzpDQpMHL-15">
          <mxGeometry x="40" y="166" width="600" height="244" as="geometry" />
        </mxCell>
        <mxCell id="bKfOvLc6IBcyzpDQpMHL-76" value="`KT_1`" style="swimlane;whiteSpace=wrap;html=1;" vertex="1" parent="bKfOvLc6IBcyzpDQpMHL-75">
          <mxGeometry x="119.25" y="40" width="78" height="160" as="geometry" />
        </mxCell>
        <mxCell id="bKfOvLc6IBcyzpDQpMHL-77" value="" style="group;" vertex="1" connectable="0" parent="bKfOvLc6IBcyzpDQpMHL-76">
          <mxGeometry x="12.629999999999999" y="35" width="52.75" height="60" as="geometry" />
        </mxCell>
        <mxCell id="bKfOvLc6IBcyzpDQpMHL-78" value="`P_1`" style="rounded=0;whiteSpace=wrap;html=1;" vertex="1" parent="bKfOvLc6IBcyzpDQpMHL-77">
          <mxGeometry width="52.75" height="25" as="geometry" />
        </mxCell>
        <mxCell id="bKfOvLc6IBcyzpDQpMHL-79" value="`P_2`" style="rounded=0;whiteSpace=wrap;html=1;" vertex="1" parent="bKfOvLc6IBcyzpDQpMHL-77">
          <mxGeometry y="35" width="52.75" height="25" as="geometry" />
        </mxCell>
        <mxCell id="bKfOvLc6IBcyzpDQpMHL-80" value="`P_3`" style="rounded=0;whiteSpace=wrap;html=1;" vertex="1" parent="bKfOvLc6IBcyzpDQpMHL-76">
          <mxGeometry x="13.379999999999995" y="107" width="52.75" height="25" as="geometry" />
        </mxCell>
        <mxCell id="bKfOvLc6IBcyzpDQpMHL-81" value="`C_1`" style="swimlane;whiteSpace=wrap;html=1;" vertex="1" parent="bKfOvLc6IBcyzpDQpMHL-75">
          <mxGeometry x="359.25" y="40" width="80.75" height="180" as="geometry" />
        </mxCell>
        <mxCell id="bKfOvLc6IBcyzpDQpMHL-82" value="" style="group;" vertex="1" connectable="0" parent="bKfOvLc6IBcyzpDQpMHL-81">
          <mxGeometry x="12" y="30" width="58" height="130" as="geometry" />
        </mxCell>
        <mxCell id="bKfOvLc6IBcyzpDQpMHL-83" value="1" style="rounded=0;whiteSpace=wrap;html=1;" vertex="1" parent="bKfOvLc6IBcyzpDQpMHL-82">
          <mxGeometry width="58" height="25" as="geometry" />
        </mxCell>
        <mxCell id="bKfOvLc6IBcyzpDQpMHL-84" value="1" style="rounded=0;whiteSpace=wrap;html=1;" vertex="1" parent="bKfOvLc6IBcyzpDQpMHL-82">
          <mxGeometry y="35" width="58" height="25" as="geometry" />
        </mxCell>
        <mxCell id="bKfOvLc6IBcyzpDQpMHL-85" value="1" style="rounded=0;whiteSpace=wrap;html=1;" vertex="1" parent="bKfOvLc6IBcyzpDQpMHL-82">
          <mxGeometry y="71" width="58" height="25" as="geometry" />
        </mxCell>
        <mxCell id="bKfOvLc6IBcyzpDQpMHL-86" value="0" style="rounded=0;whiteSpace=wrap;html=1;" vertex="1" parent="bKfOvLc6IBcyzpDQpMHL-82">
          <mxGeometry y="105" width="58" height="25" as="geometry" />
        </mxCell>
        <mxCell id="bKfOvLc6IBcyzpDQpMHL-87" value="`UT_1`" style="swimlane;whiteSpace=wrap;html=1;" vertex="1" parent="bKfOvLc6IBcyzpDQpMHL-75">
          <mxGeometry x="239.25" y="40" width="80.75" height="180" as="geometry" />
        </mxCell>
        <mxCell id="bKfOvLc6IBcyzpDQpMHL-88" value="" style="group;" vertex="1" connectable="0" parent="bKfOvLc6IBcyzpDQpMHL-87">
          <mxGeometry x="12" y="30" width="58" height="130" as="geometry" />
        </mxCell>
        <mxCell id="bKfOvLc6IBcyzpDQpMHL-89" value="`P_1`" style="rounded=0;whiteSpace=wrap;html=1;" vertex="1" parent="bKfOvLc6IBcyzpDQpMHL-88">
          <mxGeometry width="58" height="25" as="geometry" />
        </mxCell>
        <mxCell id="bKfOvLc6IBcyzpDQpMHL-90" value="`P_2`" style="rounded=0;whiteSpace=wrap;html=1;" vertex="1" parent="bKfOvLc6IBcyzpDQpMHL-88">
          <mxGeometry y="35" width="58" height="25" as="geometry" />
        </mxCell>
        <mxCell id="bKfOvLc6IBcyzpDQpMHL-91" value="`P_3`" style="rounded=0;whiteSpace=wrap;html=1;" vertex="1" parent="bKfOvLc6IBcyzpDQpMHL-88">
          <mxGeometry y="71" width="58" height="25" as="geometry" />
        </mxCell>
        <mxCell id="bKfOvLc6IBcyzpDQpMHL-92" value="`P_4`" style="rounded=0;whiteSpace=wrap;html=1;" vertex="1" parent="bKfOvLc6IBcyzpDQpMHL-88">
          <mxGeometry y="105" width="58" height="25" as="geometry" />
        </mxCell>
        <mxCell id="bKfOvLc6IBcyzpDQpMHL-93" value="Result of previous AND operation" style="swimlane;whiteSpace=wrap;html=1;fillColor=#f5f5f5;strokeColor=#666666;fontColor=#333333;" vertex="1" parent="bKfOvLc6IBcyzpDQpMHL-15">
          <mxGeometry x="40" y="832" width="600" height="228" as="geometry" />
        </mxCell>
        <mxCell id="bKfOvLc6IBcyzpDQpMHL-94" value="`KT_1`" style="swimlane;whiteSpace=wrap;html=1;" vertex="1" parent="bKfOvLc6IBcyzpDQpMHL-93">
          <mxGeometry x="119.75" y="34" width="78" height="160" as="geometry" />
        </mxCell>
        <mxCell id="bKfOvLc6IBcyzpDQpMHL-95" value="" style="group;" vertex="1" connectable="0" parent="bKfOvLc6IBcyzpDQpMHL-94">
          <mxGeometry x="12.629999999999999" y="35" width="52.75" height="60" as="geometry" />
        </mxCell>
        <mxCell id="bKfOvLc6IBcyzpDQpMHL-96" value="`P_1`" style="rounded=0;whiteSpace=wrap;html=1;" vertex="1" parent="bKfOvLc6IBcyzpDQpMHL-95">
          <mxGeometry width="52.75" height="25" as="geometry" />
        </mxCell>
        <mxCell id="bKfOvLc6IBcyzpDQpMHL-97" value="`P_2`" style="rounded=0;whiteSpace=wrap;html=1;" vertex="1" parent="bKfOvLc6IBcyzpDQpMHL-95">
          <mxGeometry y="35" width="52.75" height="25" as="geometry" />
        </mxCell>
        <mxCell id="bKfOvLc6IBcyzpDQpMHL-98" value="`P_3`" style="rounded=0;whiteSpace=wrap;html=1;" vertex="1" parent="bKfOvLc6IBcyzpDQpMHL-94">
          <mxGeometry x="12.629999999999995" y="110" width="52.75" height="25" as="geometry" />
        </mxCell>
        <mxCell id="bKfOvLc6IBcyzpDQpMHL-99" value="`UT_1`" style="swimlane;whiteSpace=wrap;html=1;" vertex="1" parent="bKfOvLc6IBcyzpDQpMHL-93">
          <mxGeometry x="240" y="34" width="119.5" height="170" as="geometry" />
        </mxCell>
        <mxCell id="bKfOvLc6IBcyzpDQpMHL-100" value="`P_1, P_2`" style="rounded=0;whiteSpace=wrap;html=1;" vertex="1" parent="bKfOvLc6IBcyzpDQpMHL-99">
          <mxGeometry x="19.75" y="30" width="80" height="25" as="geometry" />
        </mxCell>
        <mxCell id="bKfOvLc6IBcyzpDQpMHL-101" value="`P_2, P_3`" style="rounded=0;whiteSpace=wrap;html=1;" vertex="1" parent="bKfOvLc6IBcyzpDQpMHL-99">
          <mxGeometry x="19.75" y="65" width="80" height="25" as="geometry" />
        </mxCell>
        <mxCell id="bKfOvLc6IBcyzpDQpMHL-102" value="`P_3, P_4`" style="rounded=0;whiteSpace=wrap;html=1;" vertex="1" parent="bKfOvLc6IBcyzpDQpMHL-99">
          <mxGeometry x="19.75" y="101" width="80" height="25" as="geometry" />
        </mxCell>
        <mxCell id="bKfOvLc6IBcyzpDQpMHL-103" value="`C_1`" style="swimlane;whiteSpace=wrap;html=1;" vertex="1" parent="bKfOvLc6IBcyzpDQpMHL-93">
          <mxGeometry x="399.5" y="34" width="80.75" height="180" as="geometry" />
        </mxCell>
        <mxCell id="bKfOvLc6IBcyzpDQpMHL-104" value="" style="group;" vertex="1" connectable="0" parent="bKfOvLc6IBcyzpDQpMHL-103">
          <mxGeometry x="12" y="30" width="58" height="130" as="geometry" />
        </mxCell>
        <mxCell id="bKfOvLc6IBcyzpDQpMHL-105" value="1" style="rounded=0;whiteSpace=wrap;html=1;" vertex="1" parent="bKfOvLc6IBcyzpDQpMHL-104">
          <mxGeometry width="58" height="25" as="geometry" />
        </mxCell>
        <mxCell id="bKfOvLc6IBcyzpDQpMHL-106" value="1" style="rounded=0;whiteSpace=wrap;html=1;" vertex="1" parent="bKfOvLc6IBcyzpDQpMHL-104">
          <mxGeometry y="35" width="58" height="25" as="geometry" />
        </mxCell>
        <mxCell id="bKfOvLc6IBcyzpDQpMHL-107" value="0" style="rounded=0;whiteSpace=wrap;html=1;" vertex="1" parent="bKfOvLc6IBcyzpDQpMHL-104">
          <mxGeometry y="70" width="58" height="25" as="geometry" />
        </mxCell>
        <mxCell id="bKfOvLc6IBcyzpDQpMHL-108" value="Cross pairs in `KT_1` with `UT_1`" style="swimlane;whiteSpace=wrap;html=1;fillColor=#f5f5f5;strokeColor=#666666;fontColor=#333333;" vertex="1" parent="bKfOvLc6IBcyzpDQpMHL-15">
          <mxGeometry x="41.25" y="1086" width="600" height="228" as="geometry" />
        </mxCell>
        <mxCell id="bKfOvLc6IBcyzpDQpMHL-109" value="`KT_1`" style="swimlane;whiteSpace=wrap;html=1;" vertex="1" parent="bKfOvLc6IBcyzpDQpMHL-108">
          <mxGeometry x="119.75" y="34" width="91.38" height="160" as="geometry" />
        </mxCell>
        <mxCell id="bKfOvLc6IBcyzpDQpMHL-110" value="" style="group;" vertex="1" connectable="0" parent="bKfOvLc6IBcyzpDQpMHL-109">
          <mxGeometry x="12.629999999999999" y="35" width="52.75" height="60" as="geometry" />
        </mxCell>
        <mxCell id="bKfOvLc6IBcyzpDQpMHL-111" value="`P_1`" style="rounded=0;whiteSpace=wrap;html=1;" vertex="1" parent="bKfOvLc6IBcyzpDQpMHL-110">
          <mxGeometry width="52.75" height="25" as="geometry" />
        </mxCell>
        <mxCell id="bKfOvLc6IBcyzpDQpMHL-112" value="`P_2`" style="rounded=0;whiteSpace=wrap;html=1;" vertex="1" parent="bKfOvLc6IBcyzpDQpMHL-110">
          <mxGeometry y="35" width="52.75" height="25" as="geometry" />
        </mxCell>
        <mxCell id="bKfOvLc6IBcyzpDQpMHL-113" value="`P_3`" style="rounded=0;whiteSpace=wrap;html=1;" vertex="1" parent="bKfOvLc6IBcyzpDQpMHL-109">
          <mxGeometry x="13.370000000000005" y="105" width="52.75" height="25" as="geometry" />
        </mxCell>
        <mxCell id="bKfOvLc6IBcyzpDQpMHL-114" value="`UT_1`" style="swimlane;whiteSpace=wrap;html=1;" vertex="1" parent="bKfOvLc6IBcyzpDQpMHL-108">
          <mxGeometry x="240" y="34" width="119.5" height="170" as="geometry" />
        </mxCell>
        <mxCell id="bKfOvLc6IBcyzpDQpMHL-115" value="`P_1, P_2`" style="rounded=0;whiteSpace=wrap;html=1;" vertex="1" parent="bKfOvLc6IBcyzpDQpMHL-114">
          <mxGeometry x="19.75" y="34" width="80" height="25" as="geometry" />
        </mxCell>
        <mxCell id="bKfOvLc6IBcyzpDQpMHL-116" value="`P_2, P_3`" style="rounded=0;whiteSpace=wrap;html=1;" vertex="1" parent="bKfOvLc6IBcyzpDQpMHL-114">
          <mxGeometry x="19.75" y="69" width="80" height="25" as="geometry" />
        </mxCell>
        <mxCell id="bKfOvLc6IBcyzpDQpMHL-117" value="`P_3, P_4`" style="rounded=0;whiteSpace=wrap;html=1;" vertex="1" parent="bKfOvLc6IBcyzpDQpMHL-114">
          <mxGeometry x="19.75" y="105" width="80" height="25" as="geometry" />
        </mxCell>
        <mxCell id="bKfOvLc6IBcyzpDQpMHL-118" value="`C_1`" style="swimlane;whiteSpace=wrap;html=1;" vertex="1" parent="bKfOvLc6IBcyzpDQpMHL-108">
          <mxGeometry x="399.5" y="34" width="80.75" height="180" as="geometry" />
        </mxCell>
        <mxCell id="bKfOvLc6IBcyzpDQpMHL-119" value="" style="group;" vertex="1" connectable="0" parent="bKfOvLc6IBcyzpDQpMHL-118">
          <mxGeometry x="12" y="30" width="58" height="130" as="geometry" />
        </mxCell>
        <mxCell id="bKfOvLc6IBcyzpDQpMHL-120" value="1" style="rounded=0;whiteSpace=wrap;html=1;" vertex="1" parent="bKfOvLc6IBcyzpDQpMHL-119">
          <mxGeometry width="58" height="25" as="geometry" />
        </mxCell>
        <mxCell id="bKfOvLc6IBcyzpDQpMHL-121" value="1" style="rounded=0;whiteSpace=wrap;html=1;" vertex="1" parent="bKfOvLc6IBcyzpDQpMHL-119">
          <mxGeometry y="35" width="58" height="25" as="geometry" />
        </mxCell>
        <mxCell id="bKfOvLc6IBcyzpDQpMHL-122" value="0" style="rounded=0;whiteSpace=wrap;html=1;" vertex="1" parent="bKfOvLc6IBcyzpDQpMHL-119">
          <mxGeometry y="70" width="58" height="25" as="geometry" />
        </mxCell>
        <mxCell id="bKfOvLc6IBcyzpDQpMHL-123" value="" style="endArrow=classic;html=1;rounded=0;exitX=1;exitY=0.5;exitDx=0;exitDy=0;entryX=0;entryY=0.5;entryDx=0;entryDy=0;" edge="1" parent="bKfOvLc6IBcyzpDQpMHL-108" source="bKfOvLc6IBcyzpDQpMHL-111" target="bKfOvLc6IBcyzpDQpMHL-115">
          <mxGeometry width="50" height="50" relative="1" as="geometry">
            <mxPoint x="228.75" y="100" as="sourcePoint" />
            <mxPoint x="278.75" y="50" as="targetPoint" />
          </mxGeometry>
        </mxCell>
        <mxCell id="bKfOvLc6IBcyzpDQpMHL-124" value="" style="endArrow=classic;html=1;rounded=0;exitX=1;exitY=0.5;exitDx=0;exitDy=0;entryX=0;entryY=0.5;entryDx=0;entryDy=0;" edge="1" parent="bKfOvLc6IBcyzpDQpMHL-108" source="bKfOvLc6IBcyzpDQpMHL-111" target="bKfOvLc6IBcyzpDQpMHL-116">
          <mxGeometry width="50" height="50" relative="1" as="geometry">
            <mxPoint x="195" y="92" as="sourcePoint" />
            <mxPoint x="270" y="87" as="targetPoint" />
          </mxGeometry>
        </mxCell>
        <mxCell id="bKfOvLc6IBcyzpDQpMHL-125" value="" style="endArrow=classic;html=1;rounded=0;exitX=1;exitY=0.5;exitDx=0;exitDy=0;entryX=0;entryY=0.5;entryDx=0;entryDy=0;" edge="1" parent="bKfOvLc6IBcyzpDQpMHL-108" source="bKfOvLc6IBcyzpDQpMHL-111" target="bKfOvLc6IBcyzpDQpMHL-117">
          <mxGeometry width="50" height="50" relative="1" as="geometry">
            <mxPoint x="195" y="92" as="sourcePoint" />
            <mxPoint x="270" y="122" as="targetPoint" />
          </mxGeometry>
        </mxCell>
        <mxCell id="bKfOvLc6IBcyzpDQpMHL-126" value="" style="endArrow=classic;html=1;rounded=0;exitX=1;exitY=0.5;exitDx=0;exitDy=0;entryX=0;entryY=0.5;entryDx=0;entryDy=0;" edge="1" parent="bKfOvLc6IBcyzpDQpMHL-108" source="bKfOvLc6IBcyzpDQpMHL-112" target="bKfOvLc6IBcyzpDQpMHL-115">
          <mxGeometry width="50" height="50" relative="1" as="geometry">
            <mxPoint x="195" y="92" as="sourcePoint" />
            <mxPoint x="270" y="158" as="targetPoint" />
          </mxGeometry>
        </mxCell>
        <mxCell id="bKfOvLc6IBcyzpDQpMHL-127" value="" style="endArrow=classic;html=1;rounded=0;entryX=0;entryY=0.5;entryDx=0;entryDy=0;exitX=1;exitY=0.5;exitDx=0;exitDy=0;" edge="1" parent="bKfOvLc6IBcyzpDQpMHL-108" source="bKfOvLc6IBcyzpDQpMHL-112" target="bKfOvLc6IBcyzpDQpMHL-116">
          <mxGeometry width="50" height="50" relative="1" as="geometry">
            <mxPoint x="188.75" y="120" as="sourcePoint" />
            <mxPoint x="270" y="87" as="targetPoint" />
          </mxGeometry>
        </mxCell>
        <mxCell id="bKfOvLc6IBcyzpDQpMHL-128" value="" style="endArrow=classic;html=1;rounded=0;entryX=0;entryY=0.5;entryDx=0;entryDy=0;exitX=1;exitY=0.5;exitDx=0;exitDy=0;" edge="1" parent="bKfOvLc6IBcyzpDQpMHL-108" source="bKfOvLc6IBcyzpDQpMHL-112" target="bKfOvLc6IBcyzpDQpMHL-117">
          <mxGeometry width="50" height="50" relative="1" as="geometry">
            <mxPoint x="208.75" y="150" as="sourcePoint" />
            <mxPoint x="269.75" y="122" as="targetPoint" />
          </mxGeometry>
        </mxCell>
        <mxCell id="bKfOvLc6IBcyzpDQpMHL-129" value="" style="endArrow=classic;html=1;rounded=0;exitX=1;exitY=0.5;exitDx=0;exitDy=0;entryX=0;entryY=0.5;entryDx=0;entryDy=0;" edge="1" parent="bKfOvLc6IBcyzpDQpMHL-108" source="bKfOvLc6IBcyzpDQpMHL-113" target="bKfOvLc6IBcyzpDQpMHL-115">
          <mxGeometry width="50" height="50" relative="1" as="geometry">
            <mxPoint x="268.75" y="210" as="sourcePoint" />
            <mxPoint x="318.75" y="160" as="targetPoint" />
          </mxGeometry>
        </mxCell>
        <mxCell id="bKfOvLc6IBcyzpDQpMHL-130" value="" style="endArrow=classic;html=1;rounded=0;exitX=1;exitY=0.5;exitDx=0;exitDy=0;entryX=0;entryY=0.5;entryDx=0;entryDy=0;" edge="1" parent="bKfOvLc6IBcyzpDQpMHL-108" source="bKfOvLc6IBcyzpDQpMHL-113" target="bKfOvLc6IBcyzpDQpMHL-116">
          <mxGeometry width="50" height="50" relative="1" as="geometry">
            <mxPoint x="196" y="162" as="sourcePoint" />
            <mxPoint x="270" y="91" as="targetPoint" />
          </mxGeometry>
        </mxCell>
        <mxCell id="bKfOvLc6IBcyzpDQpMHL-131" style="edgeStyle=orthogonalEdgeStyle;rounded=0;orthogonalLoop=1;jettySize=auto;html=1;entryX=0.5;entryY=0;entryDx=0;entryDy=0;" edge="1" parent="bKfOvLc6IBcyzpDQpMHL-15" source="bKfOvLc6IBcyzpDQpMHL-132" target="bKfOvLc6IBcyzpDQpMHL-143">
          <mxGeometry relative="1" as="geometry" />
        </mxCell>
        <mxCell id="bKfOvLc6IBcyzpDQpMHL-132" value="Split up each part into pairs `P_R` with the corresponding `C_R`" style="swimlane;whiteSpace=wrap;html=1;fillColor=#f5f5f5;fontColor=#333333;strokeColor=#666666;" vertex="1" parent="bKfOvLc6IBcyzpDQpMHL-15">
          <mxGeometry x="39.63" y="1336" width="600.37" height="494" as="geometry" />
        </mxCell>
        <mxCell id="bKfOvLc6IBcyzpDQpMHL-133" value="&lt;font style=&quot;font-size: 14px;&quot;&gt;`P_(R1), C_(R1)`&lt;/font&gt;" style="text;html=1;align=center;verticalAlign=middle;whiteSpace=wrap;rounded=0;" vertex="1" parent="bKfOvLc6IBcyzpDQpMHL-132">
          <mxGeometry x="490.37" y="75.5" width="104" height="30" as="geometry" />
        </mxCell>
        <mxCell id="bKfOvLc6IBcyzpDQpMHL-134" style="edgeStyle=orthogonalEdgeStyle;rounded=0;orthogonalLoop=1;jettySize=auto;html=1;exitX=0.5;exitY=1;exitDx=0;exitDy=0;entryX=0.5;entryY=0;entryDx=0;entryDy=0;" edge="1" parent="bKfOvLc6IBcyzpDQpMHL-132" source="bKfOvLc6IBcyzpDQpMHL-133" target="bKfOvLc6IBcyzpDQpMHL-135">
          <mxGeometry relative="1" as="geometry">
            <mxPoint x="541.87" y="130" as="sourcePoint" />
            <mxPoint x="550.37" y="210" as="targetPoint" />
          </mxGeometry>
        </mxCell>
        <mxCell id="bKfOvLc6IBcyzpDQpMHL-135" value="..." style="text;html=1;align=center;verticalAlign=middle;whiteSpace=wrap;rounded=0;" vertex="1" parent="bKfOvLc6IBcyzpDQpMHL-132">
          <mxGeometry x="490.37" y="230" width="104" height="30" as="geometry" />
        </mxCell>
        <mxCell id="bKfOvLc6IBcyzpDQpMHL-136" style="edgeStyle=orthogonalEdgeStyle;rounded=0;orthogonalLoop=1;jettySize=auto;html=1;entryX=1;entryY=0.5;entryDx=0;entryDy=0;" edge="1" parent="bKfOvLc6IBcyzpDQpMHL-132" source="bKfOvLc6IBcyzpDQpMHL-137" target="bKfOvLc6IBcyzpDQpMHL-139">
          <mxGeometry relative="1" as="geometry">
            <Array as="points">
              <mxPoint x="542" y="455" />
            </Array>
          </mxGeometry>
        </mxCell>
        <mxCell id="bKfOvLc6IBcyzpDQpMHL-137" value="&lt;font style=&quot;font-size: 14px;&quot;&gt;`P_(R9), C_(R9)`&lt;/font&gt;" style="text;html=1;align=center;verticalAlign=middle;whiteSpace=wrap;rounded=0;" vertex="1" parent="bKfOvLc6IBcyzpDQpMHL-132">
          <mxGeometry x="490.37" y="366.5" width="104" height="30" as="geometry" />
        </mxCell>
        <mxCell id="bKfOvLc6IBcyzpDQpMHL-138" style="edgeStyle=orthogonalEdgeStyle;rounded=0;orthogonalLoop=1;jettySize=auto;html=1;exitX=0.5;exitY=1;exitDx=0;exitDy=0;entryX=0.5;entryY=0;entryDx=0;entryDy=0;" edge="1" parent="bKfOvLc6IBcyzpDQpMHL-132" source="bKfOvLc6IBcyzpDQpMHL-135" target="bKfOvLc6IBcyzpDQpMHL-137">
          <mxGeometry relative="1" as="geometry">
            <mxPoint x="591.62" y="245" as="sourcePoint" />
            <mxPoint x="591.62" y="368.5" as="targetPoint" />
          </mxGeometry>
        </mxCell>
        <mxCell id="bKfOvLc6IBcyzpDQpMHL-139" value="&lt;font style=&quot;font-size: 14px;&quot;&gt;`P_(R), C_(R)`&lt;/font&gt;" style="text;html=1;align=center;verticalAlign=middle;whiteSpace=wrap;rounded=0;" vertex="1" parent="bKfOvLc6IBcyzpDQpMHL-132">
          <mxGeometry x="248.19" y="440" width="104" height="30" as="geometry" />
        </mxCell>
        <mxCell id="bKfOvLc6IBcyzpDQpMHL-140" style="edgeStyle=orthogonalEdgeStyle;rounded=0;orthogonalLoop=1;jettySize=auto;html=1;exitX=1;exitY=0.5;exitDx=0;exitDy=0;" edge="1" parent="bKfOvLc6IBcyzpDQpMHL-15" source="bKfOvLc6IBcyzpDQpMHL-61" target="bKfOvLc6IBcyzpDQpMHL-133">
          <mxGeometry relative="1" as="geometry">
            <mxPoint x="490" y="1456" as="sourcePoint" />
            <mxPoint x="377" y="1437" as="targetPoint" />
          </mxGeometry>
        </mxCell>
        <mxCell id="bKfOvLc6IBcyzpDQpMHL-141" style="edgeStyle=orthogonalEdgeStyle;rounded=0;orthogonalLoop=1;jettySize=auto;html=1;entryX=0;entryY=0.5;entryDx=0;entryDy=0;exitX=1;exitY=0.5;exitDx=0;exitDy=0;" edge="1" parent="bKfOvLc6IBcyzpDQpMHL-15" source="bKfOvLc6IBcyzpDQpMHL-46" target="bKfOvLc6IBcyzpDQpMHL-59">
          <mxGeometry relative="1" as="geometry">
            <mxPoint x="457" y="1776" as="sourcePoint" />
            <mxPoint x="540" y="1776" as="targetPoint" />
          </mxGeometry>
        </mxCell>
        <mxCell id="bKfOvLc6IBcyzpDQpMHL-142" style="edgeStyle=orthogonalEdgeStyle;rounded=0;orthogonalLoop=1;jettySize=auto;html=1;entryX=0;entryY=0.5;entryDx=0;entryDy=0;exitX=1;exitY=0.5;exitDx=0;exitDy=0;" edge="1" parent="bKfOvLc6IBcyzpDQpMHL-15" source="bKfOvLc6IBcyzpDQpMHL-59" target="bKfOvLc6IBcyzpDQpMHL-69">
          <mxGeometry relative="1" as="geometry">
            <mxPoint x="334" y="1766" as="sourcePoint" />
            <mxPoint x="388" y="1767" as="targetPoint" />
          </mxGeometry>
        </mxCell>
        <mxCell id="bKfOvLc6IBcyzpDQpMHL-143" value="`P_R, C_R, C_(NR)`" style="rounded=1;whiteSpace=wrap;html=1;" vertex="1" parent="bKfOvLc6IBcyzpDQpMHL-15">
          <mxGeometry x="279.82" y="1896" width="120" height="60" as="geometry" />
        </mxCell>
        <mxCell id="bKfOvLc6IBcyzpDQpMHL-144" style="edgeStyle=orthogonalEdgeStyle;rounded=0;orthogonalLoop=1;jettySize=auto;html=1;exitX=0.5;exitY=1;exitDx=0;exitDy=0;entryX=0.5;entryY=0;entryDx=0;entryDy=0;" edge="1" parent="WIyWlLk6GJQsqaUBKTNV-1" target="bKfOvLc6IBcyzpDQpMHL-15">
          <mxGeometry relative="1" as="geometry">
            <mxPoint x="810" y="1500" as="sourcePoint" />
          </mxGeometry>
        </mxCell>
        <mxCell id="bKfOvLc6IBcyzpDQpMHL-145" value="`P_N, C_(NR)`" style="edgeLabel;html=1;align=center;verticalAlign=middle;resizable=0;points=[];" vertex="1" connectable="0" parent="bKfOvLc6IBcyzpDQpMHL-144">
          <mxGeometry x="-0.3333" y="-1" relative="1" as="geometry">
            <mxPoint x="-1" y="2" as="offset" />
          </mxGeometry>
        </mxCell>
        <mxCell id="bKfOvLc6IBcyzpDQpMHL-164" value="Rolling re-composition of `C_(R-pred)` to `C_(NR-pred)`" style="swimlane;whiteSpace=wrap;html=1;fillColor=#f5f5f5;fontColor=#333333;strokeColor=#666666;" vertex="1" parent="WIyWlLk6GJQsqaUBKTNV-1">
          <mxGeometry x="430" y="3760" width="760" height="720" as="geometry" />
        </mxCell>
        <mxCell id="bKfOvLc6IBcyzpDQpMHL-165" value="`KT_1`" style="swimlane;whiteSpace=wrap;html=1;fillColor=#dae8fc;strokeColor=#6c8ebf;" vertex="1" parent="bKfOvLc6IBcyzpDQpMHL-164">
          <mxGeometry x="20.37" y="40" width="89.63" height="360" as="geometry" />
        </mxCell>
        <mxCell id="bKfOvLc6IBcyzpDQpMHL-166" value="" style="group;" vertex="1" connectable="0" parent="bKfOvLc6IBcyzpDQpMHL-165">
          <mxGeometry x="20" y="30" width="50" height="316" as="geometry" />
        </mxCell>
        <mxCell id="bKfOvLc6IBcyzpDQpMHL-167" value="`P_1`" style="rounded=0;whiteSpace=wrap;html=1;" vertex="1" parent="bKfOvLc6IBcyzpDQpMHL-166">
          <mxGeometry width="50" height="25" as="geometry" />
        </mxCell>
        <mxCell id="bKfOvLc6IBcyzpDQpMHL-168" value="&lt;div&gt;`P_1`&lt;/div&gt;" style="rounded=0;whiteSpace=wrap;html=1;" vertex="1" parent="bKfOvLc6IBcyzpDQpMHL-166">
          <mxGeometry y="36" width="50" height="25" as="geometry" />
        </mxCell>
        <mxCell id="bKfOvLc6IBcyzpDQpMHL-169" value="&lt;div&gt;`P_1`&lt;/div&gt;" style="rounded=0;whiteSpace=wrap;html=1;" vertex="1" parent="bKfOvLc6IBcyzpDQpMHL-166">
          <mxGeometry y="73" width="50" height="25" as="geometry" />
        </mxCell>
        <mxCell id="bKfOvLc6IBcyzpDQpMHL-170" value="`P_3`" style="rounded=0;whiteSpace=wrap;html=1;" vertex="1" parent="bKfOvLc6IBcyzpDQpMHL-166">
          <mxGeometry y="218" width="50" height="25" as="geometry" />
        </mxCell>
        <mxCell id="bKfOvLc6IBcyzpDQpMHL-171" value="&lt;div&gt;`P_3`&lt;/div&gt;" style="rounded=0;whiteSpace=wrap;html=1;" vertex="1" parent="bKfOvLc6IBcyzpDQpMHL-166">
          <mxGeometry y="254" width="50" height="25" as="geometry" />
        </mxCell>
        <mxCell id="bKfOvLc6IBcyzpDQpMHL-172" value="&lt;div&gt;`P_3`&lt;/div&gt;" style="rounded=0;whiteSpace=wrap;html=1;" vertex="1" parent="bKfOvLc6IBcyzpDQpMHL-166">
          <mxGeometry y="291" width="50" height="25" as="geometry" />
        </mxCell>
        <mxCell id="bKfOvLc6IBcyzpDQpMHL-173" value="`P_2`" style="rounded=0;whiteSpace=wrap;html=1;" vertex="1" parent="bKfOvLc6IBcyzpDQpMHL-166">
          <mxGeometry y="109" width="50" height="25" as="geometry" />
        </mxCell>
        <mxCell id="bKfOvLc6IBcyzpDQpMHL-174" value="&lt;div&gt;`P_2`&lt;/div&gt;" style="rounded=0;whiteSpace=wrap;html=1;" vertex="1" parent="bKfOvLc6IBcyzpDQpMHL-166">
          <mxGeometry y="145" width="50" height="25" as="geometry" />
        </mxCell>
        <mxCell id="bKfOvLc6IBcyzpDQpMHL-175" value="&lt;div&gt;`P_2`&lt;/div&gt;" style="rounded=0;whiteSpace=wrap;html=1;" vertex="1" parent="bKfOvLc6IBcyzpDQpMHL-166">
          <mxGeometry y="181" width="50" height="25" as="geometry" />
        </mxCell>
        <mxCell id="bKfOvLc6IBcyzpDQpMHL-176" value="`UT_1`" style="swimlane;whiteSpace=wrap;html=1;fillColor=#dae8fc;strokeColor=#6c8ebf;" vertex="1" parent="bKfOvLc6IBcyzpDQpMHL-164">
          <mxGeometry x="120.37" y="40" width="104" height="360" as="geometry" />
        </mxCell>
        <mxCell id="bKfOvLc6IBcyzpDQpMHL-177" value="`P_1, P_2`" style="rounded=0;whiteSpace=wrap;html=1;" vertex="1" parent="bKfOvLc6IBcyzpDQpMHL-176">
          <mxGeometry x="12" y="30" width="80" height="25" as="geometry" />
        </mxCell>
        <mxCell id="bKfOvLc6IBcyzpDQpMHL-178" value="`P_2, P_3`" style="rounded=0;whiteSpace=wrap;html=1;" vertex="1" parent="bKfOvLc6IBcyzpDQpMHL-176">
          <mxGeometry x="12" y="65" width="80" height="25" as="geometry" />
        </mxCell>
        <mxCell id="bKfOvLc6IBcyzpDQpMHL-179" value="`P_3, P_4`" style="rounded=0;whiteSpace=wrap;html=1;" vertex="1" parent="bKfOvLc6IBcyzpDQpMHL-176">
          <mxGeometry x="12" y="101" width="80" height="25" as="geometry" />
        </mxCell>
        <mxCell id="bKfOvLc6IBcyzpDQpMHL-180" value="`P_1, P_2`" style="rounded=0;whiteSpace=wrap;html=1;" vertex="1" parent="bKfOvLc6IBcyzpDQpMHL-176">
          <mxGeometry x="12" y="140" width="80" height="25" as="geometry" />
        </mxCell>
        <mxCell id="bKfOvLc6IBcyzpDQpMHL-181" value="`P_2, P_3`" style="rounded=0;whiteSpace=wrap;html=1;" vertex="1" parent="bKfOvLc6IBcyzpDQpMHL-176">
          <mxGeometry x="12" y="175" width="80" height="25" as="geometry" />
        </mxCell>
        <mxCell id="bKfOvLc6IBcyzpDQpMHL-182" value="`P_3, P_4`" style="rounded=0;whiteSpace=wrap;html=1;" vertex="1" parent="bKfOvLc6IBcyzpDQpMHL-176">
          <mxGeometry x="12" y="211" width="80" height="25" as="geometry" />
        </mxCell>
        <mxCell id="bKfOvLc6IBcyzpDQpMHL-183" value="`P_1, P_2`" style="rounded=0;whiteSpace=wrap;html=1;" vertex="1" parent="bKfOvLc6IBcyzpDQpMHL-176">
          <mxGeometry x="14" y="250" width="80" height="25" as="geometry" />
        </mxCell>
        <mxCell id="bKfOvLc6IBcyzpDQpMHL-184" value="`P_2, P_3`" style="rounded=0;whiteSpace=wrap;html=1;" vertex="1" parent="bKfOvLc6IBcyzpDQpMHL-176">
          <mxGeometry x="14" y="285" width="80" height="25" as="geometry" />
        </mxCell>
        <mxCell id="bKfOvLc6IBcyzpDQpMHL-185" value="`P_3, P_4`" style="rounded=0;whiteSpace=wrap;html=1;" vertex="1" parent="bKfOvLc6IBcyzpDQpMHL-176">
          <mxGeometry x="14" y="321" width="80" height="25" as="geometry" />
        </mxCell>
        <mxCell id="bKfOvLc6IBcyzpDQpMHL-186" style="edgeStyle=orthogonalEdgeStyle;rounded=0;orthogonalLoop=1;jettySize=auto;html=1;entryX=0;entryY=0.5;entryDx=0;entryDy=0;" edge="1" parent="bKfOvLc6IBcyzpDQpMHL-164" source="bKfOvLc6IBcyzpDQpMHL-187" target="bKfOvLc6IBcyzpDQpMHL-199">
          <mxGeometry relative="1" as="geometry" />
        </mxCell>
        <mxCell id="bKfOvLc6IBcyzpDQpMHL-187" value="`C_1 - pred`" style="swimlane;whiteSpace=wrap;html=1;fillColor=#dae8fc;strokeColor=#6c8ebf;" vertex="1" parent="bKfOvLc6IBcyzpDQpMHL-164">
          <mxGeometry x="242.37" y="40" width="87.63" height="360" as="geometry" />
        </mxCell>
        <mxCell id="bKfOvLc6IBcyzpDQpMHL-188" value="" style="group;" vertex="1" connectable="0" parent="bKfOvLc6IBcyzpDQpMHL-187">
          <mxGeometry x="12" y="30" width="58" height="316" as="geometry" />
        </mxCell>
        <mxCell id="bKfOvLc6IBcyzpDQpMHL-189" value="0.85" style="rounded=0;whiteSpace=wrap;html=1;" vertex="1" parent="bKfOvLc6IBcyzpDQpMHL-188">
          <mxGeometry width="58" height="25" as="geometry" />
        </mxCell>
        <mxCell id="bKfOvLc6IBcyzpDQpMHL-190" value="0.78" style="rounded=0;whiteSpace=wrap;html=1;" vertex="1" parent="bKfOvLc6IBcyzpDQpMHL-188">
          <mxGeometry y="35" width="58" height="25" as="geometry" />
        </mxCell>
        <mxCell id="bKfOvLc6IBcyzpDQpMHL-191" value="0.24" style="rounded=0;whiteSpace=wrap;html=1;" vertex="1" parent="bKfOvLc6IBcyzpDQpMHL-188">
          <mxGeometry y="71" width="58" height="25" as="geometry" />
        </mxCell>
        <mxCell id="bKfOvLc6IBcyzpDQpMHL-192" value="0.69" style="rounded=0;whiteSpace=wrap;html=1;" vertex="1" parent="bKfOvLc6IBcyzpDQpMHL-188">
          <mxGeometry y="110" width="58" height="25" as="geometry" />
        </mxCell>
        <mxCell id="bKfOvLc6IBcyzpDQpMHL-193" value="0.88" style="rounded=0;whiteSpace=wrap;html=1;" vertex="1" parent="bKfOvLc6IBcyzpDQpMHL-188">
          <mxGeometry y="145" width="58" height="25" as="geometry" />
        </mxCell>
        <mxCell id="bKfOvLc6IBcyzpDQpMHL-194" value="0.22" style="rounded=0;whiteSpace=wrap;html=1;" vertex="1" parent="bKfOvLc6IBcyzpDQpMHL-188">
          <mxGeometry y="181" width="58" height="25" as="geometry" />
        </mxCell>
        <mxCell id="bKfOvLc6IBcyzpDQpMHL-195" value="0.95" style="rounded=0;whiteSpace=wrap;html=1;" vertex="1" parent="bKfOvLc6IBcyzpDQpMHL-188">
          <mxGeometry y="220" width="58" height="25" as="geometry" />
        </mxCell>
        <mxCell id="bKfOvLc6IBcyzpDQpMHL-196" value="0.77" style="rounded=0;whiteSpace=wrap;html=1;" vertex="1" parent="bKfOvLc6IBcyzpDQpMHL-188">
          <mxGeometry y="255" width="58" height="25" as="geometry" />
        </mxCell>
        <mxCell id="bKfOvLc6IBcyzpDQpMHL-197" value="0.11" style="rounded=0;whiteSpace=wrap;html=1;" vertex="1" parent="bKfOvLc6IBcyzpDQpMHL-188">
          <mxGeometry y="291" width="58" height="25" as="geometry" />
        </mxCell>
        <mxCell id="bKfOvLc6IBcyzpDQpMHL-198" style="edgeStyle=orthogonalEdgeStyle;rounded=0;orthogonalLoop=1;jettySize=auto;html=1;exitX=0.5;exitY=1;exitDx=0;exitDy=0;entryX=0.5;entryY=0;entryDx=0;entryDy=0;" edge="1" parent="bKfOvLc6IBcyzpDQpMHL-164" source="bKfOvLc6IBcyzpDQpMHL-199" target="bKfOvLc6IBcyzpDQpMHL-227">
          <mxGeometry relative="1" as="geometry" />
        </mxCell>
        <mxCell id="bKfOvLc6IBcyzpDQpMHL-199" value="`UT - P_1`" style="swimlane;whiteSpace=wrap;html=1;fillColor=#f8cecc;strokeColor=#b85450;" vertex="1" parent="bKfOvLc6IBcyzpDQpMHL-164">
          <mxGeometry x="360.37" y="40" width="87.63" height="360" as="geometry" />
        </mxCell>
        <mxCell id="bKfOvLc6IBcyzpDQpMHL-200" value="" style="group;" vertex="1" connectable="0" parent="bKfOvLc6IBcyzpDQpMHL-199">
          <mxGeometry x="12" y="30" width="58" height="316" as="geometry" />
        </mxCell>
        <mxCell id="bKfOvLc6IBcyzpDQpMHL-201" value="0.85" style="rounded=0;whiteSpace=wrap;html=1;" vertex="1" parent="bKfOvLc6IBcyzpDQpMHL-200">
          <mxGeometry width="58" height="25" as="geometry" />
        </mxCell>
        <mxCell id="bKfOvLc6IBcyzpDQpMHL-202" value="0.69" style="rounded=0;whiteSpace=wrap;html=1;" vertex="1" parent="bKfOvLc6IBcyzpDQpMHL-200">
          <mxGeometry y="110" width="58" height="25" as="geometry" />
        </mxCell>
        <mxCell id="bKfOvLc6IBcyzpDQpMHL-203" value="0.95" style="rounded=0;whiteSpace=wrap;html=1;" vertex="1" parent="bKfOvLc6IBcyzpDQpMHL-200">
          <mxGeometry y="220" width="58" height="25" as="geometry" />
        </mxCell>
        <mxCell id="bKfOvLc6IBcyzpDQpMHL-204" style="edgeStyle=orthogonalEdgeStyle;rounded=0;orthogonalLoop=1;jettySize=auto;html=1;entryX=0.5;entryY=0;entryDx=0;entryDy=0;" edge="1" parent="bKfOvLc6IBcyzpDQpMHL-164" source="bKfOvLc6IBcyzpDQpMHL-205" target="bKfOvLc6IBcyzpDQpMHL-229">
          <mxGeometry relative="1" as="geometry" />
        </mxCell>
        <mxCell id="bKfOvLc6IBcyzpDQpMHL-205" value="`UT - P_2`" style="swimlane;whiteSpace=wrap;html=1;fillColor=#f8cecc;strokeColor=#b85450;" vertex="1" parent="bKfOvLc6IBcyzpDQpMHL-164">
          <mxGeometry x="460.37" y="40" width="87.63" height="360" as="geometry" />
        </mxCell>
        <mxCell id="bKfOvLc6IBcyzpDQpMHL-206" value="" style="group;" vertex="1" connectable="0" parent="bKfOvLc6IBcyzpDQpMHL-205">
          <mxGeometry x="12" y="30" width="58" height="316" as="geometry" />
        </mxCell>
        <mxCell id="bKfOvLc6IBcyzpDQpMHL-207" value="0.85" style="rounded=0;whiteSpace=wrap;html=1;" vertex="1" parent="bKfOvLc6IBcyzpDQpMHL-206">
          <mxGeometry width="58" height="25" as="geometry" />
        </mxCell>
        <mxCell id="bKfOvLc6IBcyzpDQpMHL-208" value="0.78" style="rounded=0;whiteSpace=wrap;html=1;" vertex="1" parent="bKfOvLc6IBcyzpDQpMHL-206">
          <mxGeometry y="35" width="58" height="25" as="geometry" />
        </mxCell>
        <mxCell id="bKfOvLc6IBcyzpDQpMHL-209" value="0.69" style="rounded=0;whiteSpace=wrap;html=1;" vertex="1" parent="bKfOvLc6IBcyzpDQpMHL-206">
          <mxGeometry y="110" width="58" height="25" as="geometry" />
        </mxCell>
        <mxCell id="bKfOvLc6IBcyzpDQpMHL-210" value="0.88" style="rounded=0;whiteSpace=wrap;html=1;" vertex="1" parent="bKfOvLc6IBcyzpDQpMHL-206">
          <mxGeometry y="145" width="58" height="25" as="geometry" />
        </mxCell>
        <mxCell id="bKfOvLc6IBcyzpDQpMHL-211" value="0.95" style="rounded=0;whiteSpace=wrap;html=1;" vertex="1" parent="bKfOvLc6IBcyzpDQpMHL-206">
          <mxGeometry y="220" width="58" height="25" as="geometry" />
        </mxCell>
        <mxCell id="bKfOvLc6IBcyzpDQpMHL-212" value="0.77" style="rounded=0;whiteSpace=wrap;html=1;" vertex="1" parent="bKfOvLc6IBcyzpDQpMHL-206">
          <mxGeometry y="255" width="58" height="25" as="geometry" />
        </mxCell>
        <mxCell id="bKfOvLc6IBcyzpDQpMHL-213" value="`UT - P_3`" style="swimlane;whiteSpace=wrap;html=1;fillColor=#f8cecc;strokeColor=#b85450;" vertex="1" parent="bKfOvLc6IBcyzpDQpMHL-164">
          <mxGeometry x="560" y="40" width="87.63" height="360" as="geometry" />
        </mxCell>
        <mxCell id="bKfOvLc6IBcyzpDQpMHL-214" value="" style="group;" vertex="1" connectable="0" parent="bKfOvLc6IBcyzpDQpMHL-213">
          <mxGeometry x="12" y="30" width="58" height="316" as="geometry" />
        </mxCell>
        <mxCell id="bKfOvLc6IBcyzpDQpMHL-215" value="0.78" style="rounded=0;whiteSpace=wrap;html=1;" vertex="1" parent="bKfOvLc6IBcyzpDQpMHL-214">
          <mxGeometry y="35" width="58" height="25" as="geometry" />
        </mxCell>
        <mxCell id="bKfOvLc6IBcyzpDQpMHL-216" value="0.24" style="rounded=0;whiteSpace=wrap;html=1;" vertex="1" parent="bKfOvLc6IBcyzpDQpMHL-214">
          <mxGeometry y="71" width="58" height="25" as="geometry" />
        </mxCell>
        <mxCell id="bKfOvLc6IBcyzpDQpMHL-217" value="0.88" style="rounded=0;whiteSpace=wrap;html=1;" vertex="1" parent="bKfOvLc6IBcyzpDQpMHL-214">
          <mxGeometry y="145" width="58" height="25" as="geometry" />
        </mxCell>
        <mxCell id="bKfOvLc6IBcyzpDQpMHL-218" value="0.22" style="rounded=0;whiteSpace=wrap;html=1;" vertex="1" parent="bKfOvLc6IBcyzpDQpMHL-214">
          <mxGeometry y="181" width="58" height="25" as="geometry" />
        </mxCell>
        <mxCell id="bKfOvLc6IBcyzpDQpMHL-219" value="0.77" style="rounded=0;whiteSpace=wrap;html=1;" vertex="1" parent="bKfOvLc6IBcyzpDQpMHL-214">
          <mxGeometry y="255" width="58" height="25" as="geometry" />
        </mxCell>
        <mxCell id="bKfOvLc6IBcyzpDQpMHL-220" value="0.11" style="rounded=0;whiteSpace=wrap;html=1;" vertex="1" parent="bKfOvLc6IBcyzpDQpMHL-214">
          <mxGeometry y="291" width="58" height="25" as="geometry" />
        </mxCell>
        <mxCell id="bKfOvLc6IBcyzpDQpMHL-221" value="`UT - P_4`" style="swimlane;whiteSpace=wrap;html=1;fillColor=#f8cecc;strokeColor=#b85450;" vertex="1" parent="bKfOvLc6IBcyzpDQpMHL-164">
          <mxGeometry x="660" y="40" width="87.63" height="360" as="geometry" />
        </mxCell>
        <mxCell id="bKfOvLc6IBcyzpDQpMHL-222" value="" style="group;" vertex="1" connectable="0" parent="bKfOvLc6IBcyzpDQpMHL-221">
          <mxGeometry x="12" y="30" width="58" height="316" as="geometry" />
        </mxCell>
        <mxCell id="bKfOvLc6IBcyzpDQpMHL-223" value="0.24" style="rounded=0;whiteSpace=wrap;html=1;" vertex="1" parent="bKfOvLc6IBcyzpDQpMHL-222">
          <mxGeometry y="71" width="58" height="25" as="geometry" />
        </mxCell>
        <mxCell id="bKfOvLc6IBcyzpDQpMHL-224" value="0.22" style="rounded=0;whiteSpace=wrap;html=1;" vertex="1" parent="bKfOvLc6IBcyzpDQpMHL-222">
          <mxGeometry y="181" width="58" height="25" as="geometry" />
        </mxCell>
        <mxCell id="bKfOvLc6IBcyzpDQpMHL-225" value="0.11" style="rounded=0;whiteSpace=wrap;html=1;" vertex="1" parent="bKfOvLc6IBcyzpDQpMHL-222">
          <mxGeometry y="291" width="58" height="25" as="geometry" />
        </mxCell>
        <mxCell id="bKfOvLc6IBcyzpDQpMHL-226" style="edgeStyle=orthogonalEdgeStyle;rounded=0;orthogonalLoop=1;jettySize=auto;html=1;exitX=0.5;exitY=1;exitDx=0;exitDy=0;entryX=1;entryY=0.5;entryDx=0;entryDy=0;" edge="1" parent="bKfOvLc6IBcyzpDQpMHL-164" source="bKfOvLc6IBcyzpDQpMHL-227" target="bKfOvLc6IBcyzpDQpMHL-242">
          <mxGeometry relative="1" as="geometry" />
        </mxCell>
        <mxCell id="bKfOvLc6IBcyzpDQpMHL-227" value="`(&quot;sum&quot;(UT - P_1)) / (&quot;len&quot;(UT - P_1))`" style="text;html=1;align=center;verticalAlign=middle;whiteSpace=wrap;rounded=0;" vertex="1" parent="bKfOvLc6IBcyzpDQpMHL-164">
          <mxGeometry x="352.19" y="430" width="95.81" height="50" as="geometry" />
        </mxCell>
        <mxCell id="bKfOvLc6IBcyzpDQpMHL-228" style="edgeStyle=orthogonalEdgeStyle;rounded=0;orthogonalLoop=1;jettySize=auto;html=1;exitX=0.5;exitY=1;exitDx=0;exitDy=0;entryX=1;entryY=0.5;entryDx=0;entryDy=0;" edge="1" parent="bKfOvLc6IBcyzpDQpMHL-164" source="bKfOvLc6IBcyzpDQpMHL-229" target="bKfOvLc6IBcyzpDQpMHL-243">
          <mxGeometry relative="1" as="geometry" />
        </mxCell>
        <mxCell id="bKfOvLc6IBcyzpDQpMHL-229" value="`(&quot;sum&quot;(UT - P_2)) / (&quot;len&quot;(UT - P_2))`" style="text;html=1;align=center;verticalAlign=middle;whiteSpace=wrap;rounded=0;" vertex="1" parent="bKfOvLc6IBcyzpDQpMHL-164">
          <mxGeometry x="456.28" y="430" width="95.81" height="50" as="geometry" />
        </mxCell>
        <mxCell id="bKfOvLc6IBcyzpDQpMHL-230" style="edgeStyle=orthogonalEdgeStyle;rounded=0;orthogonalLoop=1;jettySize=auto;html=1;exitX=0.5;exitY=1;exitDx=0;exitDy=0;entryX=1;entryY=0.5;entryDx=0;entryDy=0;" edge="1" parent="bKfOvLc6IBcyzpDQpMHL-164" source="bKfOvLc6IBcyzpDQpMHL-231" target="bKfOvLc6IBcyzpDQpMHL-244">
          <mxGeometry relative="1" as="geometry" />
        </mxCell>
        <mxCell id="bKfOvLc6IBcyzpDQpMHL-231" value="`(&quot;sum&quot;(UT - P_2)) / (&quot;len&quot;(UT - P_2))`" style="text;html=1;align=center;verticalAlign=middle;whiteSpace=wrap;rounded=0;" vertex="1" parent="bKfOvLc6IBcyzpDQpMHL-164">
          <mxGeometry x="552.91" y="430" width="95.81" height="50" as="geometry" />
        </mxCell>
        <mxCell id="bKfOvLc6IBcyzpDQpMHL-232" style="edgeStyle=orthogonalEdgeStyle;rounded=0;orthogonalLoop=1;jettySize=auto;html=1;exitX=0.5;exitY=1;exitDx=0;exitDy=0;entryX=1;entryY=0.5;entryDx=0;entryDy=0;" edge="1" parent="bKfOvLc6IBcyzpDQpMHL-164" source="bKfOvLc6IBcyzpDQpMHL-233" target="bKfOvLc6IBcyzpDQpMHL-245">
          <mxGeometry relative="1" as="geometry" />
        </mxCell>
        <mxCell id="bKfOvLc6IBcyzpDQpMHL-233" value="`(&quot;sum&quot;(UT - P_3)) / (&quot;len&quot;(UT - P_3))`" style="text;html=1;align=center;verticalAlign=middle;whiteSpace=wrap;rounded=0;" vertex="1" parent="bKfOvLc6IBcyzpDQpMHL-164">
          <mxGeometry x="653.91" y="430" width="95.81" height="50" as="geometry" />
        </mxCell>
        <mxCell id="bKfOvLc6IBcyzpDQpMHL-234" style="edgeStyle=orthogonalEdgeStyle;rounded=0;orthogonalLoop=1;jettySize=auto;html=1;entryX=0.5;entryY=0;entryDx=0;entryDy=0;" edge="1" parent="bKfOvLc6IBcyzpDQpMHL-164" source="bKfOvLc6IBcyzpDQpMHL-220" target="bKfOvLc6IBcyzpDQpMHL-231">
          <mxGeometry relative="1" as="geometry" />
        </mxCell>
        <mxCell id="bKfOvLc6IBcyzpDQpMHL-235" style="edgeStyle=orthogonalEdgeStyle;rounded=0;orthogonalLoop=1;jettySize=auto;html=1;entryX=0.5;entryY=0;entryDx=0;entryDy=0;" edge="1" parent="bKfOvLc6IBcyzpDQpMHL-164" source="bKfOvLc6IBcyzpDQpMHL-225" target="bKfOvLc6IBcyzpDQpMHL-233">
          <mxGeometry relative="1" as="geometry" />
        </mxCell>
        <mxCell id="bKfOvLc6IBcyzpDQpMHL-236" value="`KT_1`" style="swimlane;whiteSpace=wrap;html=1;" vertex="1" parent="bKfOvLc6IBcyzpDQpMHL-164">
          <mxGeometry x="77.63" y="520" width="78" height="160" as="geometry" />
        </mxCell>
        <mxCell id="bKfOvLc6IBcyzpDQpMHL-237" value="" style="group;" vertex="1" connectable="0" parent="bKfOvLc6IBcyzpDQpMHL-236">
          <mxGeometry x="12.629999999999999" y="35" width="52.75" height="60" as="geometry" />
        </mxCell>
        <mxCell id="bKfOvLc6IBcyzpDQpMHL-238" value="`P_1`" style="rounded=0;whiteSpace=wrap;html=1;" vertex="1" parent="bKfOvLc6IBcyzpDQpMHL-237">
          <mxGeometry width="52.75" height="25" as="geometry" />
        </mxCell>
        <mxCell id="bKfOvLc6IBcyzpDQpMHL-239" value="`P_2`" style="rounded=0;whiteSpace=wrap;html=1;" vertex="1" parent="bKfOvLc6IBcyzpDQpMHL-237">
          <mxGeometry y="35" width="52.75" height="25" as="geometry" />
        </mxCell>
        <mxCell id="bKfOvLc6IBcyzpDQpMHL-240" value="`C_1`" style="swimlane;whiteSpace=wrap;html=1;fillColor=#f8cecc;strokeColor=#b85450;" vertex="1" parent="bKfOvLc6IBcyzpDQpMHL-164">
          <mxGeometry x="279.62" y="520" width="80.75" height="180" as="geometry" />
        </mxCell>
        <mxCell id="bKfOvLc6IBcyzpDQpMHL-241" value="" style="group;" vertex="1" connectable="0" parent="bKfOvLc6IBcyzpDQpMHL-240">
          <mxGeometry x="12" y="30" width="58" height="130" as="geometry" />
        </mxCell>
        <mxCell id="bKfOvLc6IBcyzpDQpMHL-242" value="0.833" style="rounded=0;whiteSpace=wrap;html=1;" vertex="1" parent="bKfOvLc6IBcyzpDQpMHL-241">
          <mxGeometry width="58" height="25" as="geometry" />
        </mxCell>
        <mxCell id="bKfOvLc6IBcyzpDQpMHL-243" value="0.82" style="rounded=0;whiteSpace=wrap;html=1;" vertex="1" parent="bKfOvLc6IBcyzpDQpMHL-241">
          <mxGeometry y="35" width="58" height="25" as="geometry" />
        </mxCell>
        <mxCell id="bKfOvLc6IBcyzpDQpMHL-244" value="0.5" style="rounded=0;whiteSpace=wrap;html=1;" vertex="1" parent="bKfOvLc6IBcyzpDQpMHL-241">
          <mxGeometry y="71" width="58" height="25" as="geometry" />
        </mxCell>
        <mxCell id="bKfOvLc6IBcyzpDQpMHL-245" value="0.19" style="rounded=0;whiteSpace=wrap;html=1;" vertex="1" parent="bKfOvLc6IBcyzpDQpMHL-241">
          <mxGeometry y="105" width="58" height="25" as="geometry" />
        </mxCell>
        <mxCell id="bKfOvLc6IBcyzpDQpMHL-246" value="`UT_1`" style="swimlane;whiteSpace=wrap;html=1;" vertex="1" parent="bKfOvLc6IBcyzpDQpMHL-164">
          <mxGeometry x="180" y="520" width="80.75" height="180" as="geometry" />
        </mxCell>
        <mxCell id="bKfOvLc6IBcyzpDQpMHL-247" value="" style="group;" vertex="1" connectable="0" parent="bKfOvLc6IBcyzpDQpMHL-246">
          <mxGeometry x="12" y="30" width="58" height="130" as="geometry" />
        </mxCell>
        <mxCell id="bKfOvLc6IBcyzpDQpMHL-248" value="`P_1`" style="rounded=0;whiteSpace=wrap;html=1;" vertex="1" parent="bKfOvLc6IBcyzpDQpMHL-247">
          <mxGeometry width="58" height="25" as="geometry" />
        </mxCell>
        <mxCell id="bKfOvLc6IBcyzpDQpMHL-249" value="`P_2`" style="rounded=0;whiteSpace=wrap;html=1;" vertex="1" parent="bKfOvLc6IBcyzpDQpMHL-247">
          <mxGeometry y="35" width="58" height="25" as="geometry" />
        </mxCell>
        <mxCell id="bKfOvLc6IBcyzpDQpMHL-250" value="`P_3`" style="rounded=0;whiteSpace=wrap;html=1;" vertex="1" parent="bKfOvLc6IBcyzpDQpMHL-247">
          <mxGeometry y="71" width="58" height="25" as="geometry" />
        </mxCell>
        <mxCell id="bKfOvLc6IBcyzpDQpMHL-251" value="`P_4`" style="rounded=0;whiteSpace=wrap;html=1;" vertex="1" parent="bKfOvLc6IBcyzpDQpMHL-247">
          <mxGeometry y="105" width="58" height="25" as="geometry" />
        </mxCell>
        <mxCell id="bKfOvLc6IBcyzpDQpMHL-252" value="" style="endArrow=classic;html=1;rounded=0;entryX=0;entryY=0.5;entryDx=0;entryDy=0;" edge="1" parent="WIyWlLk6GJQsqaUBKTNV-1" target="bKfOvLc6IBcyzpDQpMHL-117">
          <mxGeometry width="50" height="50" relative="1" as="geometry">
            <mxPoint x="700" y="2790" as="sourcePoint" />
            <mxPoint x="781.25" y="2766" as="targetPoint" />
          </mxGeometry>
        </mxCell>
      </root>
    </mxGraphModel>
  </diagram>
</mxfile>
